%TF.GenerationSoftware,KiCad,Pcbnew,(5.1.9)-1*%
%TF.CreationDate,2021-08-07T22:14:23+02:00*%
%TF.ProjectId,Arm_Mainboard,41726d5f-4d61-4696-9e62-6f6172642e6b,rev?*%
%TF.SameCoordinates,Original*%
%TF.FileFunction,Paste,Bot*%
%TF.FilePolarity,Positive*%
%FSLAX46Y46*%
G04 Gerber Fmt 4.6, Leading zero omitted, Abs format (unit mm)*
G04 Created by KiCad (PCBNEW (5.1.9)-1) date 2021-08-07 22:14:23*
%MOMM*%
%LPD*%
G01*
G04 APERTURE LIST*
%ADD10R,0.300000X0.700000*%
%ADD11R,1.000000X0.700000*%
%ADD12R,1.100000X1.500000*%
G04 APERTURE END LIST*
D10*
%TO.C,USB *%
X173626672Y-141630000D03*
X173126672Y-141630000D03*
X172626672Y-141630000D03*
X172126672Y-141630000D03*
X171626672Y-141630000D03*
X171126672Y-141630000D03*
X170126672Y-141630000D03*
X169626672Y-141630000D03*
X169126672Y-141630000D03*
X168626672Y-141630000D03*
X168126672Y-141630000D03*
X167626672Y-141630000D03*
D11*
X167526672Y-142930000D03*
D10*
X168376672Y-142930000D03*
X168876672Y-142930000D03*
X169376672Y-142930000D03*
X169876672Y-142930000D03*
X170376672Y-142930000D03*
X170876672Y-142930000D03*
X171376672Y-142930000D03*
X171876672Y-142930000D03*
X172376672Y-142930000D03*
X172876672Y-142930000D03*
D11*
X173726672Y-142930000D03*
%TD*%
D12*
%TO.C,S4*%
X146610000Y-130230000D03*
X146610000Y-139130000D03*
X149150000Y-130230000D03*
X149150000Y-139130000D03*
X151690000Y-130230000D03*
X151690000Y-139130000D03*
X154230000Y-130230000D03*
X154230000Y-139130000D03*
%TD*%
%TO.C,RX*%
G36*
G01*
X216995000Y-144075000D02*
X218145000Y-144075000D01*
G75*
G02*
X218395000Y-144325000I0J-250000D01*
G01*
X218395000Y-145425000D01*
G75*
G02*
X218145000Y-145675000I-250000J0D01*
G01*
X216995000Y-145675000D01*
G75*
G02*
X216745000Y-145425000I0J250000D01*
G01*
X216745000Y-144325000D01*
G75*
G02*
X216995000Y-144075000I250000J0D01*
G01*
G37*
G36*
G01*
X216995000Y-146925000D02*
X218145000Y-146925000D01*
G75*
G02*
X218395000Y-147175000I0J-250000D01*
G01*
X218395000Y-148275000D01*
G75*
G02*
X218145000Y-148525000I-250000J0D01*
G01*
X216995000Y-148525000D01*
G75*
G02*
X216745000Y-148275000I0J250000D01*
G01*
X216745000Y-147175000D01*
G75*
G02*
X216995000Y-146925000I250000J0D01*
G01*
G37*
%TD*%
%TO.C,TX*%
G36*
G01*
X214635000Y-146915000D02*
X215785000Y-146915000D01*
G75*
G02*
X216035000Y-147165000I0J-250000D01*
G01*
X216035000Y-148265000D01*
G75*
G02*
X215785000Y-148515000I-250000J0D01*
G01*
X214635000Y-148515000D01*
G75*
G02*
X214385000Y-148265000I0J250000D01*
G01*
X214385000Y-147165000D01*
G75*
G02*
X214635000Y-146915000I250000J0D01*
G01*
G37*
G36*
G01*
X214635000Y-144065000D02*
X215785000Y-144065000D01*
G75*
G02*
X216035000Y-144315000I0J-250000D01*
G01*
X216035000Y-145415000D01*
G75*
G02*
X215785000Y-145665000I-250000J0D01*
G01*
X214635000Y-145665000D01*
G75*
G02*
X214385000Y-145415000I0J250000D01*
G01*
X214385000Y-144315000D01*
G75*
G02*
X214635000Y-144065000I250000J0D01*
G01*
G37*
%TD*%
M02*
