%TF.GenerationSoftware,KiCad,Pcbnew,(5.1.9)-1*%
%TF.CreationDate,2021-09-09T23:56:45+02:00*%
%TF.ProjectId,Arm_Mainboard,41726d5f-4d61-4696-9e62-6f6172642e6b,rev?*%
%TF.SameCoordinates,Original*%
%TF.FileFunction,Soldermask,Top*%
%TF.FilePolarity,Negative*%
%FSLAX46Y46*%
G04 Gerber Fmt 4.6, Leading zero omitted, Abs format (unit mm)*
G04 Created by KiCad (PCBNEW (5.1.9)-1) date 2021-09-09 23:56:45*
%MOMM*%
%LPD*%
G01*
G04 APERTURE LIST*
%ADD10O,1.600000X1.600000*%
%ADD11R,1.600000X1.600000*%
%ADD12R,0.450000X0.600000*%
%ADD13R,4.600000X1.100000*%
%ADD14R,9.400000X10.800000*%
%ADD15O,1.100000X2.200000*%
%ADD16O,1.300000X2.600000*%
%ADD17O,1.700000X1.700000*%
%ADD18R,1.700000X1.700000*%
%ADD19R,3.000000X3.000000*%
%ADD20C,3.000000*%
%ADD21C,0.100000*%
%ADD22O,1.700000X1.950000*%
%ADD23C,2.500000*%
%ADD24R,3.600000X2.700000*%
%ADD25R,2.200000X1.200000*%
%ADD26R,6.400000X5.800000*%
%ADD27R,1.100000X1.500000*%
%ADD28R,5.000000X5.000000*%
%ADD29R,2.000000X0.900000*%
%ADD30R,0.900000X2.000000*%
%ADD31R,10.800000X9.400000*%
%ADD32R,0.800000X4.600000*%
G04 APERTURE END LIST*
D10*
%TO.C,A3*%
X185443328Y-80720000D03*
X167663328Y-68020000D03*
X182903328Y-80720000D03*
X170203328Y-68020000D03*
X180363328Y-80720000D03*
X172743328Y-68020000D03*
X177823328Y-80720000D03*
X175283328Y-68020000D03*
X175283328Y-80720000D03*
X177823328Y-68020000D03*
X172743328Y-80720000D03*
X180363328Y-68020000D03*
X170203328Y-80720000D03*
X182903328Y-68020000D03*
X167663328Y-80720000D03*
D11*
X185443328Y-68020000D03*
%TD*%
%TO.C,A1*%
X124967776Y-68020000D03*
D10*
X107187776Y-80720000D03*
X122427776Y-68020000D03*
X109727776Y-80720000D03*
X119887776Y-68020000D03*
X112267776Y-80720000D03*
X117347776Y-68020000D03*
X114807776Y-80720000D03*
X114807776Y-68020000D03*
X117347776Y-80720000D03*
X112267776Y-68020000D03*
X119887776Y-80720000D03*
X109727776Y-68020000D03*
X122427776Y-80720000D03*
X107187776Y-68020000D03*
X124967776Y-80720000D03*
%TD*%
%TO.C,A2*%
X155205552Y-80720000D03*
X137425552Y-68020000D03*
X152665552Y-80720000D03*
X139965552Y-68020000D03*
X150125552Y-80720000D03*
X142505552Y-68020000D03*
X147585552Y-80720000D03*
X145045552Y-68020000D03*
X145045552Y-80720000D03*
X147585552Y-68020000D03*
X142505552Y-80720000D03*
X150125552Y-68020000D03*
X139965552Y-80720000D03*
X152665552Y-68020000D03*
X137425552Y-80720000D03*
D11*
X155205552Y-68020000D03*
%TD*%
%TO.C,C1*%
G36*
G01*
X177145000Y-105835000D02*
X176195000Y-105835000D01*
G75*
G02*
X175945000Y-105585000I0J250000D01*
G01*
X175945000Y-104910000D01*
G75*
G02*
X176195000Y-104660000I250000J0D01*
G01*
X177145000Y-104660000D01*
G75*
G02*
X177395000Y-104910000I0J-250000D01*
G01*
X177395000Y-105585000D01*
G75*
G02*
X177145000Y-105835000I-250000J0D01*
G01*
G37*
G36*
G01*
X177145000Y-103760000D02*
X176195000Y-103760000D01*
G75*
G02*
X175945000Y-103510000I0J250000D01*
G01*
X175945000Y-102835000D01*
G75*
G02*
X176195000Y-102585000I250000J0D01*
G01*
X177145000Y-102585000D01*
G75*
G02*
X177395000Y-102835000I0J-250000D01*
G01*
X177395000Y-103510000D01*
G75*
G02*
X177145000Y-103760000I-250000J0D01*
G01*
G37*
%TD*%
%TO.C,C2*%
G36*
G01*
X174855000Y-101755000D02*
X173905000Y-101755000D01*
G75*
G02*
X173655000Y-101505000I0J250000D01*
G01*
X173655000Y-100830000D01*
G75*
G02*
X173905000Y-100580000I250000J0D01*
G01*
X174855000Y-100580000D01*
G75*
G02*
X175105000Y-100830000I0J-250000D01*
G01*
X175105000Y-101505000D01*
G75*
G02*
X174855000Y-101755000I-250000J0D01*
G01*
G37*
G36*
G01*
X174855000Y-99680000D02*
X173905000Y-99680000D01*
G75*
G02*
X173655000Y-99430000I0J250000D01*
G01*
X173655000Y-98755000D01*
G75*
G02*
X173905000Y-98505000I250000J0D01*
G01*
X174855000Y-98505000D01*
G75*
G02*
X175105000Y-98755000I0J-250000D01*
G01*
X175105000Y-99430000D01*
G75*
G02*
X174855000Y-99680000I-250000J0D01*
G01*
G37*
%TD*%
%TO.C,C3*%
G36*
G01*
X177135000Y-99680000D02*
X176185000Y-99680000D01*
G75*
G02*
X175935000Y-99430000I0J250000D01*
G01*
X175935000Y-98755000D01*
G75*
G02*
X176185000Y-98505000I250000J0D01*
G01*
X177135000Y-98505000D01*
G75*
G02*
X177385000Y-98755000I0J-250000D01*
G01*
X177385000Y-99430000D01*
G75*
G02*
X177135000Y-99680000I-250000J0D01*
G01*
G37*
G36*
G01*
X177135000Y-101755000D02*
X176185000Y-101755000D01*
G75*
G02*
X175935000Y-101505000I0J250000D01*
G01*
X175935000Y-100830000D01*
G75*
G02*
X176185000Y-100580000I250000J0D01*
G01*
X177135000Y-100580000D01*
G75*
G02*
X177385000Y-100830000I0J-250000D01*
G01*
X177385000Y-101505000D01*
G75*
G02*
X177135000Y-101755000I-250000J0D01*
G01*
G37*
%TD*%
%TO.C,C4*%
G36*
G01*
X210610000Y-144445000D02*
X210610000Y-143495000D01*
G75*
G02*
X210860000Y-143245000I250000J0D01*
G01*
X211535000Y-143245000D01*
G75*
G02*
X211785000Y-143495000I0J-250000D01*
G01*
X211785000Y-144445000D01*
G75*
G02*
X211535000Y-144695000I-250000J0D01*
G01*
X210860000Y-144695000D01*
G75*
G02*
X210610000Y-144445000I0J250000D01*
G01*
G37*
G36*
G01*
X208535000Y-144445000D02*
X208535000Y-143495000D01*
G75*
G02*
X208785000Y-143245000I250000J0D01*
G01*
X209460000Y-143245000D01*
G75*
G02*
X209710000Y-143495000I0J-250000D01*
G01*
X209710000Y-144445000D01*
G75*
G02*
X209460000Y-144695000I-250000J0D01*
G01*
X208785000Y-144695000D01*
G75*
G02*
X208535000Y-144445000I0J250000D01*
G01*
G37*
%TD*%
%TO.C,C5*%
G36*
G01*
X192925000Y-128995000D02*
X192925000Y-128045000D01*
G75*
G02*
X193175000Y-127795000I250000J0D01*
G01*
X193850000Y-127795000D01*
G75*
G02*
X194100000Y-128045000I0J-250000D01*
G01*
X194100000Y-128995000D01*
G75*
G02*
X193850000Y-129245000I-250000J0D01*
G01*
X193175000Y-129245000D01*
G75*
G02*
X192925000Y-128995000I0J250000D01*
G01*
G37*
G36*
G01*
X195000000Y-128995000D02*
X195000000Y-128045000D01*
G75*
G02*
X195250000Y-127795000I250000J0D01*
G01*
X195925000Y-127795000D01*
G75*
G02*
X196175000Y-128045000I0J-250000D01*
G01*
X196175000Y-128995000D01*
G75*
G02*
X195925000Y-129245000I-250000J0D01*
G01*
X195250000Y-129245000D01*
G75*
G02*
X195000000Y-128995000I0J250000D01*
G01*
G37*
%TD*%
%TO.C,C6*%
G36*
G01*
X202375000Y-135845000D02*
X202375000Y-136795000D01*
G75*
G02*
X202125000Y-137045000I-250000J0D01*
G01*
X201450000Y-137045000D01*
G75*
G02*
X201200000Y-136795000I0J250000D01*
G01*
X201200000Y-135845000D01*
G75*
G02*
X201450000Y-135595000I250000J0D01*
G01*
X202125000Y-135595000D01*
G75*
G02*
X202375000Y-135845000I0J-250000D01*
G01*
G37*
G36*
G01*
X204450000Y-135845000D02*
X204450000Y-136795000D01*
G75*
G02*
X204200000Y-137045000I-250000J0D01*
G01*
X203525000Y-137045000D01*
G75*
G02*
X203275000Y-136795000I0J250000D01*
G01*
X203275000Y-135845000D01*
G75*
G02*
X203525000Y-135595000I250000J0D01*
G01*
X204200000Y-135595000D01*
G75*
G02*
X204450000Y-135845000I0J-250000D01*
G01*
G37*
%TD*%
%TO.C,C7*%
G36*
G01*
X202375000Y-133675000D02*
X202375000Y-134625000D01*
G75*
G02*
X202125000Y-134875000I-250000J0D01*
G01*
X201450000Y-134875000D01*
G75*
G02*
X201200000Y-134625000I0J250000D01*
G01*
X201200000Y-133675000D01*
G75*
G02*
X201450000Y-133425000I250000J0D01*
G01*
X202125000Y-133425000D01*
G75*
G02*
X202375000Y-133675000I0J-250000D01*
G01*
G37*
G36*
G01*
X204450000Y-133675000D02*
X204450000Y-134625000D01*
G75*
G02*
X204200000Y-134875000I-250000J0D01*
G01*
X203525000Y-134875000D01*
G75*
G02*
X203275000Y-134625000I0J250000D01*
G01*
X203275000Y-133675000D01*
G75*
G02*
X203525000Y-133425000I250000J0D01*
G01*
X204200000Y-133425000D01*
G75*
G02*
X204450000Y-133675000I0J-250000D01*
G01*
G37*
%TD*%
%TO.C,C8*%
G36*
G01*
X128630000Y-103110000D02*
X128630000Y-104210000D01*
G75*
G02*
X128380000Y-104460000I-250000J0D01*
G01*
X125880000Y-104460000D01*
G75*
G02*
X125630000Y-104210000I0J250000D01*
G01*
X125630000Y-103110000D01*
G75*
G02*
X125880000Y-102860000I250000J0D01*
G01*
X128380000Y-102860000D01*
G75*
G02*
X128630000Y-103110000I0J-250000D01*
G01*
G37*
G36*
G01*
X133030000Y-103110000D02*
X133030000Y-104210000D01*
G75*
G02*
X132780000Y-104460000I-250000J0D01*
G01*
X130280000Y-104460000D01*
G75*
G02*
X130030000Y-104210000I0J250000D01*
G01*
X130030000Y-103110000D01*
G75*
G02*
X130280000Y-102860000I250000J0D01*
G01*
X132780000Y-102860000D01*
G75*
G02*
X133030000Y-103110000I0J-250000D01*
G01*
G37*
%TD*%
%TO.C,C9*%
G36*
G01*
X86330000Y-122090000D02*
X86330000Y-123190000D01*
G75*
G02*
X86080000Y-123440000I-250000J0D01*
G01*
X83580000Y-123440000D01*
G75*
G02*
X83330000Y-123190000I0J250000D01*
G01*
X83330000Y-122090000D01*
G75*
G02*
X83580000Y-121840000I250000J0D01*
G01*
X86080000Y-121840000D01*
G75*
G02*
X86330000Y-122090000I0J-250000D01*
G01*
G37*
G36*
G01*
X81930000Y-122090000D02*
X81930000Y-123190000D01*
G75*
G02*
X81680000Y-123440000I-250000J0D01*
G01*
X79180000Y-123440000D01*
G75*
G02*
X78930000Y-123190000I0J250000D01*
G01*
X78930000Y-122090000D01*
G75*
G02*
X79180000Y-121840000I250000J0D01*
G01*
X81680000Y-121840000D01*
G75*
G02*
X81930000Y-122090000I0J-250000D01*
G01*
G37*
%TD*%
%TO.C,C10*%
G36*
G01*
X133030000Y-122384999D02*
X133030000Y-123484999D01*
G75*
G02*
X132780000Y-123734999I-250000J0D01*
G01*
X130280000Y-123734999D01*
G75*
G02*
X130030000Y-123484999I0J250000D01*
G01*
X130030000Y-122384999D01*
G75*
G02*
X130280000Y-122134999I250000J0D01*
G01*
X132780000Y-122134999D01*
G75*
G02*
X133030000Y-122384999I0J-250000D01*
G01*
G37*
G36*
G01*
X128630000Y-122384999D02*
X128630000Y-123484999D01*
G75*
G02*
X128380000Y-123734999I-250000J0D01*
G01*
X125880000Y-123734999D01*
G75*
G02*
X125630000Y-123484999I0J250000D01*
G01*
X125630000Y-122384999D01*
G75*
G02*
X125880000Y-122134999I250000J0D01*
G01*
X128380000Y-122134999D01*
G75*
G02*
X128630000Y-122384999I0J-250000D01*
G01*
G37*
%TD*%
%TO.C,C11*%
G36*
G01*
X81930000Y-103140000D02*
X81930000Y-104240000D01*
G75*
G02*
X81680000Y-104490000I-250000J0D01*
G01*
X79180000Y-104490000D01*
G75*
G02*
X78930000Y-104240000I0J250000D01*
G01*
X78930000Y-103140000D01*
G75*
G02*
X79180000Y-102890000I250000J0D01*
G01*
X81680000Y-102890000D01*
G75*
G02*
X81930000Y-103140000I0J-250000D01*
G01*
G37*
G36*
G01*
X86330000Y-103140000D02*
X86330000Y-104240000D01*
G75*
G02*
X86080000Y-104490000I-250000J0D01*
G01*
X83580000Y-104490000D01*
G75*
G02*
X83330000Y-104240000I0J250000D01*
G01*
X83330000Y-103140000D01*
G75*
G02*
X83580000Y-102890000I250000J0D01*
G01*
X86080000Y-102890000D01*
G75*
G02*
X86330000Y-103140000I0J-250000D01*
G01*
G37*
%TD*%
%TO.C,C12*%
G36*
G01*
X128630000Y-115959998D02*
X128630000Y-117059998D01*
G75*
G02*
X128380000Y-117309998I-250000J0D01*
G01*
X125880000Y-117309998D01*
G75*
G02*
X125630000Y-117059998I0J250000D01*
G01*
X125630000Y-115959998D01*
G75*
G02*
X125880000Y-115709998I250000J0D01*
G01*
X128380000Y-115709998D01*
G75*
G02*
X128630000Y-115959998I0J-250000D01*
G01*
G37*
G36*
G01*
X133030000Y-115959998D02*
X133030000Y-117059998D01*
G75*
G02*
X132780000Y-117309998I-250000J0D01*
G01*
X130280000Y-117309998D01*
G75*
G02*
X130030000Y-117059998I0J250000D01*
G01*
X130030000Y-115959998D01*
G75*
G02*
X130280000Y-115709998I250000J0D01*
G01*
X132780000Y-115709998D01*
G75*
G02*
X133030000Y-115959998I0J-250000D01*
G01*
G37*
%TD*%
%TO.C,C13*%
G36*
G01*
X86330000Y-115773332D02*
X86330000Y-116873332D01*
G75*
G02*
X86080000Y-117123332I-250000J0D01*
G01*
X83580000Y-117123332D01*
G75*
G02*
X83330000Y-116873332I0J250000D01*
G01*
X83330000Y-115773332D01*
G75*
G02*
X83580000Y-115523332I250000J0D01*
G01*
X86080000Y-115523332D01*
G75*
G02*
X86330000Y-115773332I0J-250000D01*
G01*
G37*
G36*
G01*
X81930000Y-115773332D02*
X81930000Y-116873332D01*
G75*
G02*
X81680000Y-117123332I-250000J0D01*
G01*
X79180000Y-117123332D01*
G75*
G02*
X78930000Y-116873332I0J250000D01*
G01*
X78930000Y-115773332D01*
G75*
G02*
X79180000Y-115523332I250000J0D01*
G01*
X81680000Y-115523332D01*
G75*
G02*
X81930000Y-115773332I0J-250000D01*
G01*
G37*
%TD*%
%TO.C,C14*%
G36*
G01*
X133030000Y-109534999D02*
X133030000Y-110634999D01*
G75*
G02*
X132780000Y-110884999I-250000J0D01*
G01*
X130280000Y-110884999D01*
G75*
G02*
X130030000Y-110634999I0J250000D01*
G01*
X130030000Y-109534999D01*
G75*
G02*
X130280000Y-109284999I250000J0D01*
G01*
X132780000Y-109284999D01*
G75*
G02*
X133030000Y-109534999I0J-250000D01*
G01*
G37*
G36*
G01*
X128630000Y-109534999D02*
X128630000Y-110634999D01*
G75*
G02*
X128380000Y-110884999I-250000J0D01*
G01*
X125880000Y-110884999D01*
G75*
G02*
X125630000Y-110634999I0J250000D01*
G01*
X125630000Y-109534999D01*
G75*
G02*
X125880000Y-109284999I250000J0D01*
G01*
X128380000Y-109284999D01*
G75*
G02*
X128630000Y-109534999I0J-250000D01*
G01*
G37*
%TD*%
%TO.C,C15*%
G36*
G01*
X81930000Y-109456666D02*
X81930000Y-110556666D01*
G75*
G02*
X81680000Y-110806666I-250000J0D01*
G01*
X79180000Y-110806666D01*
G75*
G02*
X78930000Y-110556666I0J250000D01*
G01*
X78930000Y-109456666D01*
G75*
G02*
X79180000Y-109206666I250000J0D01*
G01*
X81680000Y-109206666D01*
G75*
G02*
X81930000Y-109456666I0J-250000D01*
G01*
G37*
G36*
G01*
X86330000Y-109456666D02*
X86330000Y-110556666D01*
G75*
G02*
X86080000Y-110806666I-250000J0D01*
G01*
X83580000Y-110806666D01*
G75*
G02*
X83330000Y-110556666I0J250000D01*
G01*
X83330000Y-109456666D01*
G75*
G02*
X83580000Y-109206666I250000J0D01*
G01*
X86080000Y-109206666D01*
G75*
G02*
X86330000Y-109456666I0J-250000D01*
G01*
G37*
%TD*%
%TO.C,C16*%
G36*
G01*
X136005000Y-126215000D02*
X135055000Y-126215000D01*
G75*
G02*
X134805000Y-125965000I0J250000D01*
G01*
X134805000Y-125290000D01*
G75*
G02*
X135055000Y-125040000I250000J0D01*
G01*
X136005000Y-125040000D01*
G75*
G02*
X136255000Y-125290000I0J-250000D01*
G01*
X136255000Y-125965000D01*
G75*
G02*
X136005000Y-126215000I-250000J0D01*
G01*
G37*
G36*
G01*
X136005000Y-124140000D02*
X135055000Y-124140000D01*
G75*
G02*
X134805000Y-123890000I0J250000D01*
G01*
X134805000Y-123215000D01*
G75*
G02*
X135055000Y-122965000I250000J0D01*
G01*
X136005000Y-122965000D01*
G75*
G02*
X136255000Y-123215000I0J-250000D01*
G01*
X136255000Y-123890000D01*
G75*
G02*
X136005000Y-124140000I-250000J0D01*
G01*
G37*
%TD*%
%TO.C,C17*%
G36*
G01*
X89305000Y-125285000D02*
X88355000Y-125285000D01*
G75*
G02*
X88105000Y-125035000I0J250000D01*
G01*
X88105000Y-124360000D01*
G75*
G02*
X88355000Y-124110000I250000J0D01*
G01*
X89305000Y-124110000D01*
G75*
G02*
X89555000Y-124360000I0J-250000D01*
G01*
X89555000Y-125035000D01*
G75*
G02*
X89305000Y-125285000I-250000J0D01*
G01*
G37*
G36*
G01*
X89305000Y-123210000D02*
X88355000Y-123210000D01*
G75*
G02*
X88105000Y-122960000I0J250000D01*
G01*
X88105000Y-122285000D01*
G75*
G02*
X88355000Y-122035000I250000J0D01*
G01*
X89305000Y-122035000D01*
G75*
G02*
X89555000Y-122285000I0J-250000D01*
G01*
X89555000Y-122960000D01*
G75*
G02*
X89305000Y-123210000I-250000J0D01*
G01*
G37*
%TD*%
%TO.C,C18*%
G36*
G01*
X149580000Y-123770000D02*
X149580000Y-122670000D01*
G75*
G02*
X149830000Y-122420000I250000J0D01*
G01*
X152830000Y-122420000D01*
G75*
G02*
X153080000Y-122670000I0J-250000D01*
G01*
X153080000Y-123770000D01*
G75*
G02*
X152830000Y-124020000I-250000J0D01*
G01*
X149830000Y-124020000D01*
G75*
G02*
X149580000Y-123770000I0J250000D01*
G01*
G37*
G36*
G01*
X155180000Y-123770000D02*
X155180000Y-122670000D01*
G75*
G02*
X155430000Y-122420000I250000J0D01*
G01*
X158430000Y-122420000D01*
G75*
G02*
X158680000Y-122670000I0J-250000D01*
G01*
X158680000Y-123770000D01*
G75*
G02*
X158430000Y-124020000I-250000J0D01*
G01*
X155430000Y-124020000D01*
G75*
G02*
X155180000Y-123770000I0J250000D01*
G01*
G37*
%TD*%
%TO.C,C19*%
G36*
G01*
X108480000Y-115540000D02*
X108480000Y-114440000D01*
G75*
G02*
X108730000Y-114190000I250000J0D01*
G01*
X111730000Y-114190000D01*
G75*
G02*
X111980000Y-114440000I0J-250000D01*
G01*
X111980000Y-115540000D01*
G75*
G02*
X111730000Y-115790000I-250000J0D01*
G01*
X108730000Y-115790000D01*
G75*
G02*
X108480000Y-115540000I0J250000D01*
G01*
G37*
G36*
G01*
X102880000Y-115540000D02*
X102880000Y-114440000D01*
G75*
G02*
X103130000Y-114190000I250000J0D01*
G01*
X106130000Y-114190000D01*
G75*
G02*
X106380000Y-114440000I0J-250000D01*
G01*
X106380000Y-115540000D01*
G75*
G02*
X106130000Y-115790000I-250000J0D01*
G01*
X103130000Y-115790000D01*
G75*
G02*
X102880000Y-115540000I0J250000D01*
G01*
G37*
%TD*%
%TO.C,C20*%
G36*
G01*
X155180000Y-116250000D02*
X155180000Y-115150000D01*
G75*
G02*
X155430000Y-114900000I250000J0D01*
G01*
X158430000Y-114900000D01*
G75*
G02*
X158680000Y-115150000I0J-250000D01*
G01*
X158680000Y-116250000D01*
G75*
G02*
X158430000Y-116500000I-250000J0D01*
G01*
X155430000Y-116500000D01*
G75*
G02*
X155180000Y-116250000I0J250000D01*
G01*
G37*
G36*
G01*
X149580000Y-116250000D02*
X149580000Y-115150000D01*
G75*
G02*
X149830000Y-114900000I250000J0D01*
G01*
X152830000Y-114900000D01*
G75*
G02*
X153080000Y-115150000I0J-250000D01*
G01*
X153080000Y-116250000D01*
G75*
G02*
X152830000Y-116500000I-250000J0D01*
G01*
X149830000Y-116500000D01*
G75*
G02*
X149580000Y-116250000I0J250000D01*
G01*
G37*
%TD*%
%TO.C,C21*%
G36*
G01*
X102880000Y-123190000D02*
X102880000Y-122090000D01*
G75*
G02*
X103130000Y-121840000I250000J0D01*
G01*
X106130000Y-121840000D01*
G75*
G02*
X106380000Y-122090000I0J-250000D01*
G01*
X106380000Y-123190000D01*
G75*
G02*
X106130000Y-123440000I-250000J0D01*
G01*
X103130000Y-123440000D01*
G75*
G02*
X102880000Y-123190000I0J250000D01*
G01*
G37*
G36*
G01*
X108480000Y-123190000D02*
X108480000Y-122090000D01*
G75*
G02*
X108730000Y-121840000I250000J0D01*
G01*
X111730000Y-121840000D01*
G75*
G02*
X111980000Y-122090000I0J-250000D01*
G01*
X111980000Y-123190000D01*
G75*
G02*
X111730000Y-123440000I-250000J0D01*
G01*
X108730000Y-123440000D01*
G75*
G02*
X108480000Y-123190000I0J250000D01*
G01*
G37*
%TD*%
%TO.C,C22*%
G36*
G01*
X113910276Y-75360000D02*
X113910276Y-73360000D01*
G75*
G02*
X114160276Y-73110000I250000J0D01*
G01*
X117160276Y-73110000D01*
G75*
G02*
X117410276Y-73360000I0J-250000D01*
G01*
X117410276Y-75360000D01*
G75*
G02*
X117160276Y-75610000I-250000J0D01*
G01*
X114160276Y-75610000D01*
G75*
G02*
X113910276Y-75360000I0J250000D01*
G01*
G37*
G36*
G01*
X107410276Y-75360000D02*
X107410276Y-73360000D01*
G75*
G02*
X107660276Y-73110000I250000J0D01*
G01*
X110660276Y-73110000D01*
G75*
G02*
X110910276Y-73360000I0J-250000D01*
G01*
X110910276Y-75360000D01*
G75*
G02*
X110660276Y-75610000I-250000J0D01*
G01*
X107660276Y-75610000D01*
G75*
G02*
X107410276Y-75360000I0J250000D01*
G01*
G37*
%TD*%
%TO.C,C23*%
G36*
G01*
X137648052Y-75360000D02*
X137648052Y-73360000D01*
G75*
G02*
X137898052Y-73110000I250000J0D01*
G01*
X140898052Y-73110000D01*
G75*
G02*
X141148052Y-73360000I0J-250000D01*
G01*
X141148052Y-75360000D01*
G75*
G02*
X140898052Y-75610000I-250000J0D01*
G01*
X137898052Y-75610000D01*
G75*
G02*
X137648052Y-75360000I0J250000D01*
G01*
G37*
G36*
G01*
X144148052Y-75360000D02*
X144148052Y-73360000D01*
G75*
G02*
X144398052Y-73110000I250000J0D01*
G01*
X147398052Y-73110000D01*
G75*
G02*
X147648052Y-73360000I0J-250000D01*
G01*
X147648052Y-75360000D01*
G75*
G02*
X147398052Y-75610000I-250000J0D01*
G01*
X144398052Y-75610000D01*
G75*
G02*
X144148052Y-75360000I0J250000D01*
G01*
G37*
%TD*%
%TO.C,C24*%
G36*
G01*
X167885828Y-75360000D02*
X167885828Y-73360000D01*
G75*
G02*
X168135828Y-73110000I250000J0D01*
G01*
X171135828Y-73110000D01*
G75*
G02*
X171385828Y-73360000I0J-250000D01*
G01*
X171385828Y-75360000D01*
G75*
G02*
X171135828Y-75610000I-250000J0D01*
G01*
X168135828Y-75610000D01*
G75*
G02*
X167885828Y-75360000I0J250000D01*
G01*
G37*
G36*
G01*
X174385828Y-75360000D02*
X174385828Y-73360000D01*
G75*
G02*
X174635828Y-73110000I250000J0D01*
G01*
X177635828Y-73110000D01*
G75*
G02*
X177885828Y-73360000I0J-250000D01*
G01*
X177885828Y-75360000D01*
G75*
G02*
X177635828Y-75610000I-250000J0D01*
G01*
X174635828Y-75610000D01*
G75*
G02*
X174385828Y-75360000I0J250000D01*
G01*
G37*
%TD*%
D12*
%TO.C,D3*%
X99480000Y-129000000D03*
X99480000Y-131100000D03*
%TD*%
D13*
%TO.C,D4*%
X151465000Y-105930000D03*
X151465000Y-100850000D03*
D14*
X142315000Y-103390000D03*
%TD*%
%TO.C,D5*%
X95615000Y-102760000D03*
D13*
X104765000Y-100220000D03*
X104765000Y-105300000D03*
%TD*%
%TO.C,F1*%
G36*
G01*
X87140000Y-141325001D02*
X87140000Y-136374999D01*
G75*
G02*
X87389999Y-136125000I249999J0D01*
G01*
X88815001Y-136125000D01*
G75*
G02*
X89065000Y-136374999I0J-249999D01*
G01*
X89065000Y-141325001D01*
G75*
G02*
X88815001Y-141575000I-249999J0D01*
G01*
X87389999Y-141575000D01*
G75*
G02*
X87140000Y-141325001I0J249999D01*
G01*
G37*
G36*
G01*
X93915000Y-141325001D02*
X93915000Y-136374999D01*
G75*
G02*
X94164999Y-136125000I249999J0D01*
G01*
X95590001Y-136125000D01*
G75*
G02*
X95840000Y-136374999I0J-249999D01*
G01*
X95840000Y-141325001D01*
G75*
G02*
X95590001Y-141575000I-249999J0D01*
G01*
X94164999Y-141575000D01*
G75*
G02*
X93915000Y-141325001I0J249999D01*
G01*
G37*
%TD*%
D15*
%TO.C,USB *%
X174946672Y-142040000D03*
X166306672Y-142040000D03*
D16*
X174946672Y-147400000D03*
X166306672Y-147400000D03*
%TD*%
D17*
%TO.C,RST*%
X208540000Y-147795000D03*
D18*
X211080000Y-147795000D03*
%TD*%
%TO.C,J7*%
X140970000Y-147800000D03*
D17*
X138430000Y-147800000D03*
%TD*%
D19*
%TO.C,J8*%
X94030000Y-146210000D03*
D20*
X88950000Y-146210000D03*
%TD*%
D17*
%TO.C,J9*%
X131510000Y-147800000D03*
X128970000Y-147800000D03*
D18*
X126430000Y-147800000D03*
%TD*%
%TO.C,J10*%
X113440000Y-147800000D03*
D17*
X115980000Y-147800000D03*
X118520000Y-147800000D03*
%TD*%
D21*
%TO.C,12V*%
G36*
X102790602Y-70960000D02*
G01*
X102790602Y-70935466D01*
X102795412Y-70886635D01*
X102804984Y-70838510D01*
X102819228Y-70791555D01*
X102838005Y-70746222D01*
X102861136Y-70702949D01*
X102888396Y-70662150D01*
X102919524Y-70624221D01*
X102954221Y-70589524D01*
X102992150Y-70558396D01*
X103032949Y-70531136D01*
X103076222Y-70508005D01*
X103121555Y-70489228D01*
X103168510Y-70474984D01*
X103216635Y-70465412D01*
X103265466Y-70460602D01*
X103290000Y-70460602D01*
X103290000Y-70460000D01*
X103790000Y-70460000D01*
X103790000Y-70460602D01*
X103814534Y-70460602D01*
X103863365Y-70465412D01*
X103911490Y-70474984D01*
X103958445Y-70489228D01*
X104003778Y-70508005D01*
X104047051Y-70531136D01*
X104087850Y-70558396D01*
X104125779Y-70589524D01*
X104160476Y-70624221D01*
X104191604Y-70662150D01*
X104218864Y-70702949D01*
X104241995Y-70746222D01*
X104260772Y-70791555D01*
X104275016Y-70838510D01*
X104284588Y-70886635D01*
X104289398Y-70935466D01*
X104289398Y-70960000D01*
X104290000Y-70960000D01*
X104290000Y-71460000D01*
X102790000Y-71460000D01*
X102790000Y-70960000D01*
X102790602Y-70960000D01*
G37*
G36*
X104290000Y-71760000D02*
G01*
X104290000Y-72260000D01*
X104289398Y-72260000D01*
X104289398Y-72284534D01*
X104284588Y-72333365D01*
X104275016Y-72381490D01*
X104260772Y-72428445D01*
X104241995Y-72473778D01*
X104218864Y-72517051D01*
X104191604Y-72557850D01*
X104160476Y-72595779D01*
X104125779Y-72630476D01*
X104087850Y-72661604D01*
X104047051Y-72688864D01*
X104003778Y-72711995D01*
X103958445Y-72730772D01*
X103911490Y-72745016D01*
X103863365Y-72754588D01*
X103814534Y-72759398D01*
X103790000Y-72759398D01*
X103790000Y-72760000D01*
X103290000Y-72760000D01*
X103290000Y-72759398D01*
X103265466Y-72759398D01*
X103216635Y-72754588D01*
X103168510Y-72745016D01*
X103121555Y-72730772D01*
X103076222Y-72711995D01*
X103032949Y-72688864D01*
X102992150Y-72661604D01*
X102954221Y-72630476D01*
X102919524Y-72595779D01*
X102888396Y-72557850D01*
X102861136Y-72517051D01*
X102838005Y-72473778D01*
X102819228Y-72428445D01*
X102804984Y-72381490D01*
X102795412Y-72333365D01*
X102790602Y-72284534D01*
X102790602Y-72260000D01*
X102790000Y-72260000D01*
X102790000Y-71760000D01*
X104290000Y-71760000D01*
G37*
%TD*%
%TO.C,5V*%
G36*
X102790602Y-67490000D02*
G01*
X102790602Y-67465466D01*
X102795412Y-67416635D01*
X102804984Y-67368510D01*
X102819228Y-67321555D01*
X102838005Y-67276222D01*
X102861136Y-67232949D01*
X102888396Y-67192150D01*
X102919524Y-67154221D01*
X102954221Y-67119524D01*
X102992150Y-67088396D01*
X103032949Y-67061136D01*
X103076222Y-67038005D01*
X103121555Y-67019228D01*
X103168510Y-67004984D01*
X103216635Y-66995412D01*
X103265466Y-66990602D01*
X103290000Y-66990602D01*
X103290000Y-66990000D01*
X103790000Y-66990000D01*
X103790000Y-66990602D01*
X103814534Y-66990602D01*
X103863365Y-66995412D01*
X103911490Y-67004984D01*
X103958445Y-67019228D01*
X104003778Y-67038005D01*
X104047051Y-67061136D01*
X104087850Y-67088396D01*
X104125779Y-67119524D01*
X104160476Y-67154221D01*
X104191604Y-67192150D01*
X104218864Y-67232949D01*
X104241995Y-67276222D01*
X104260772Y-67321555D01*
X104275016Y-67368510D01*
X104284588Y-67416635D01*
X104289398Y-67465466D01*
X104289398Y-67490000D01*
X104290000Y-67490000D01*
X104290000Y-67990000D01*
X102790000Y-67990000D01*
X102790000Y-67490000D01*
X102790602Y-67490000D01*
G37*
G36*
X104290000Y-68290000D02*
G01*
X104290000Y-68790000D01*
X104289398Y-68790000D01*
X104289398Y-68814534D01*
X104284588Y-68863365D01*
X104275016Y-68911490D01*
X104260772Y-68958445D01*
X104241995Y-69003778D01*
X104218864Y-69047051D01*
X104191604Y-69087850D01*
X104160476Y-69125779D01*
X104125779Y-69160476D01*
X104087850Y-69191604D01*
X104047051Y-69218864D01*
X104003778Y-69241995D01*
X103958445Y-69260772D01*
X103911490Y-69275016D01*
X103863365Y-69284588D01*
X103814534Y-69289398D01*
X103790000Y-69289398D01*
X103790000Y-69290000D01*
X103290000Y-69290000D01*
X103290000Y-69289398D01*
X103265466Y-69289398D01*
X103216635Y-69284588D01*
X103168510Y-69275016D01*
X103121555Y-69260772D01*
X103076222Y-69241995D01*
X103032949Y-69218864D01*
X102992150Y-69191604D01*
X102954221Y-69160476D01*
X102919524Y-69125779D01*
X102888396Y-69087850D01*
X102861136Y-69047051D01*
X102838005Y-69003778D01*
X102819228Y-68958445D01*
X102804984Y-68911490D01*
X102795412Y-68863365D01*
X102790602Y-68814534D01*
X102790602Y-68790000D01*
X102790000Y-68790000D01*
X102790000Y-68290000D01*
X104290000Y-68290000D01*
G37*
%TD*%
%TO.C,J14*%
G36*
G01*
X117017776Y-51635000D02*
X117017776Y-53085000D01*
G75*
G02*
X116767776Y-53335000I-250000J0D01*
G01*
X115567776Y-53335000D01*
G75*
G02*
X115317776Y-53085000I0J250000D01*
G01*
X115317776Y-51635000D01*
G75*
G02*
X115567776Y-51385000I250000J0D01*
G01*
X116767776Y-51385000D01*
G75*
G02*
X117017776Y-51635000I0J-250000D01*
G01*
G37*
D22*
X113667776Y-52360000D03*
X111167776Y-52360000D03*
X108667776Y-52360000D03*
%TD*%
D21*
%TO.C,12V*%
G36*
X134560000Y-71760000D02*
G01*
X134560000Y-72260000D01*
X134559398Y-72260000D01*
X134559398Y-72284534D01*
X134554588Y-72333365D01*
X134545016Y-72381490D01*
X134530772Y-72428445D01*
X134511995Y-72473778D01*
X134488864Y-72517051D01*
X134461604Y-72557850D01*
X134430476Y-72595779D01*
X134395779Y-72630476D01*
X134357850Y-72661604D01*
X134317051Y-72688864D01*
X134273778Y-72711995D01*
X134228445Y-72730772D01*
X134181490Y-72745016D01*
X134133365Y-72754588D01*
X134084534Y-72759398D01*
X134060000Y-72759398D01*
X134060000Y-72760000D01*
X133560000Y-72760000D01*
X133560000Y-72759398D01*
X133535466Y-72759398D01*
X133486635Y-72754588D01*
X133438510Y-72745016D01*
X133391555Y-72730772D01*
X133346222Y-72711995D01*
X133302949Y-72688864D01*
X133262150Y-72661604D01*
X133224221Y-72630476D01*
X133189524Y-72595779D01*
X133158396Y-72557850D01*
X133131136Y-72517051D01*
X133108005Y-72473778D01*
X133089228Y-72428445D01*
X133074984Y-72381490D01*
X133065412Y-72333365D01*
X133060602Y-72284534D01*
X133060602Y-72260000D01*
X133060000Y-72260000D01*
X133060000Y-71760000D01*
X134560000Y-71760000D01*
G37*
G36*
X133060602Y-70960000D02*
G01*
X133060602Y-70935466D01*
X133065412Y-70886635D01*
X133074984Y-70838510D01*
X133089228Y-70791555D01*
X133108005Y-70746222D01*
X133131136Y-70702949D01*
X133158396Y-70662150D01*
X133189524Y-70624221D01*
X133224221Y-70589524D01*
X133262150Y-70558396D01*
X133302949Y-70531136D01*
X133346222Y-70508005D01*
X133391555Y-70489228D01*
X133438510Y-70474984D01*
X133486635Y-70465412D01*
X133535466Y-70460602D01*
X133560000Y-70460602D01*
X133560000Y-70460000D01*
X134060000Y-70460000D01*
X134060000Y-70460602D01*
X134084534Y-70460602D01*
X134133365Y-70465412D01*
X134181490Y-70474984D01*
X134228445Y-70489228D01*
X134273778Y-70508005D01*
X134317051Y-70531136D01*
X134357850Y-70558396D01*
X134395779Y-70589524D01*
X134430476Y-70624221D01*
X134461604Y-70662150D01*
X134488864Y-70702949D01*
X134511995Y-70746222D01*
X134530772Y-70791555D01*
X134545016Y-70838510D01*
X134554588Y-70886635D01*
X134559398Y-70935466D01*
X134559398Y-70960000D01*
X134560000Y-70960000D01*
X134560000Y-71460000D01*
X133060000Y-71460000D01*
X133060000Y-70960000D01*
X133060602Y-70960000D01*
G37*
%TD*%
D22*
%TO.C,J16*%
X199350000Y-52360000D03*
X201850000Y-52360000D03*
X204350000Y-52360000D03*
G36*
G01*
X207700000Y-51635000D02*
X207700000Y-53085000D01*
G75*
G02*
X207450000Y-53335000I-250000J0D01*
G01*
X206250000Y-53335000D01*
G75*
G02*
X206000000Y-53085000I0J250000D01*
G01*
X206000000Y-51635000D01*
G75*
G02*
X206250000Y-51385000I250000J0D01*
G01*
X207450000Y-51385000D01*
G75*
G02*
X207700000Y-51635000I0J-250000D01*
G01*
G37*
%TD*%
%TO.C,AXIS1*%
G36*
G01*
X86780000Y-51635000D02*
X86780000Y-53085000D01*
G75*
G02*
X86530000Y-53335000I-250000J0D01*
G01*
X85330000Y-53335000D01*
G75*
G02*
X85080000Y-53085000I0J250000D01*
G01*
X85080000Y-51635000D01*
G75*
G02*
X85330000Y-51385000I250000J0D01*
G01*
X86530000Y-51385000D01*
G75*
G02*
X86780000Y-51635000I0J-250000D01*
G01*
G37*
X83430000Y-52360000D03*
X80930000Y-52360000D03*
X78430000Y-52360000D03*
%TD*%
D23*
%TO.C,J19*%
X227890000Y-112869999D03*
X227890000Y-107789999D03*
X227890000Y-102709999D03*
X227890000Y-97629999D03*
X227890000Y-92549999D03*
X227890000Y-87469999D03*
X227890000Y-82389999D03*
X227890000Y-77309999D03*
X227890000Y-72229999D03*
X227890000Y-67149999D03*
X227890000Y-62069999D03*
X227890000Y-56989999D03*
%TD*%
%TO.C,J20*%
X71750000Y-112550000D03*
X71750000Y-107470000D03*
X71750000Y-102390000D03*
X71750000Y-97310000D03*
X71750000Y-92230000D03*
X71750000Y-87150000D03*
X71750000Y-82070000D03*
X71750000Y-76990000D03*
X71750000Y-71910000D03*
X71750000Y-66830000D03*
X71750000Y-61750000D03*
X71750000Y-56670000D03*
%TD*%
D21*
%TO.C,5V*%
G36*
X134560000Y-68290000D02*
G01*
X134560000Y-68790000D01*
X134559398Y-68790000D01*
X134559398Y-68814534D01*
X134554588Y-68863365D01*
X134545016Y-68911490D01*
X134530772Y-68958445D01*
X134511995Y-69003778D01*
X134488864Y-69047051D01*
X134461604Y-69087850D01*
X134430476Y-69125779D01*
X134395779Y-69160476D01*
X134357850Y-69191604D01*
X134317051Y-69218864D01*
X134273778Y-69241995D01*
X134228445Y-69260772D01*
X134181490Y-69275016D01*
X134133365Y-69284588D01*
X134084534Y-69289398D01*
X134060000Y-69289398D01*
X134060000Y-69290000D01*
X133560000Y-69290000D01*
X133560000Y-69289398D01*
X133535466Y-69289398D01*
X133486635Y-69284588D01*
X133438510Y-69275016D01*
X133391555Y-69260772D01*
X133346222Y-69241995D01*
X133302949Y-69218864D01*
X133262150Y-69191604D01*
X133224221Y-69160476D01*
X133189524Y-69125779D01*
X133158396Y-69087850D01*
X133131136Y-69047051D01*
X133108005Y-69003778D01*
X133089228Y-68958445D01*
X133074984Y-68911490D01*
X133065412Y-68863365D01*
X133060602Y-68814534D01*
X133060602Y-68790000D01*
X133060000Y-68790000D01*
X133060000Y-68290000D01*
X134560000Y-68290000D01*
G37*
G36*
X133060602Y-67490000D02*
G01*
X133060602Y-67465466D01*
X133065412Y-67416635D01*
X133074984Y-67368510D01*
X133089228Y-67321555D01*
X133108005Y-67276222D01*
X133131136Y-67232949D01*
X133158396Y-67192150D01*
X133189524Y-67154221D01*
X133224221Y-67119524D01*
X133262150Y-67088396D01*
X133302949Y-67061136D01*
X133346222Y-67038005D01*
X133391555Y-67019228D01*
X133438510Y-67004984D01*
X133486635Y-66995412D01*
X133535466Y-66990602D01*
X133560000Y-66990602D01*
X133560000Y-66990000D01*
X134060000Y-66990000D01*
X134060000Y-66990602D01*
X134084534Y-66990602D01*
X134133365Y-66995412D01*
X134181490Y-67004984D01*
X134228445Y-67019228D01*
X134273778Y-67038005D01*
X134317051Y-67061136D01*
X134357850Y-67088396D01*
X134395779Y-67119524D01*
X134430476Y-67154221D01*
X134461604Y-67192150D01*
X134488864Y-67232949D01*
X134511995Y-67276222D01*
X134530772Y-67321555D01*
X134545016Y-67368510D01*
X134554588Y-67416635D01*
X134559398Y-67465466D01*
X134559398Y-67490000D01*
X134560000Y-67490000D01*
X134560000Y-67990000D01*
X133060000Y-67990000D01*
X133060000Y-67490000D01*
X133060602Y-67490000D01*
G37*
%TD*%
%TO.C,J22*%
G36*
G01*
X147255552Y-51635000D02*
X147255552Y-53085000D01*
G75*
G02*
X147005552Y-53335000I-250000J0D01*
G01*
X145805552Y-53335000D01*
G75*
G02*
X145555552Y-53085000I0J250000D01*
G01*
X145555552Y-51635000D01*
G75*
G02*
X145805552Y-51385000I250000J0D01*
G01*
X147005552Y-51385000D01*
G75*
G02*
X147255552Y-51635000I0J-250000D01*
G01*
G37*
D22*
X143905552Y-52360000D03*
X141405552Y-52360000D03*
X138905552Y-52360000D03*
%TD*%
D21*
%TO.C,12V*%
G36*
X164730000Y-71760000D02*
G01*
X164730000Y-72260000D01*
X164729398Y-72260000D01*
X164729398Y-72284534D01*
X164724588Y-72333365D01*
X164715016Y-72381490D01*
X164700772Y-72428445D01*
X164681995Y-72473778D01*
X164658864Y-72517051D01*
X164631604Y-72557850D01*
X164600476Y-72595779D01*
X164565779Y-72630476D01*
X164527850Y-72661604D01*
X164487051Y-72688864D01*
X164443778Y-72711995D01*
X164398445Y-72730772D01*
X164351490Y-72745016D01*
X164303365Y-72754588D01*
X164254534Y-72759398D01*
X164230000Y-72759398D01*
X164230000Y-72760000D01*
X163730000Y-72760000D01*
X163730000Y-72759398D01*
X163705466Y-72759398D01*
X163656635Y-72754588D01*
X163608510Y-72745016D01*
X163561555Y-72730772D01*
X163516222Y-72711995D01*
X163472949Y-72688864D01*
X163432150Y-72661604D01*
X163394221Y-72630476D01*
X163359524Y-72595779D01*
X163328396Y-72557850D01*
X163301136Y-72517051D01*
X163278005Y-72473778D01*
X163259228Y-72428445D01*
X163244984Y-72381490D01*
X163235412Y-72333365D01*
X163230602Y-72284534D01*
X163230602Y-72260000D01*
X163230000Y-72260000D01*
X163230000Y-71760000D01*
X164730000Y-71760000D01*
G37*
G36*
X163230602Y-70960000D02*
G01*
X163230602Y-70935466D01*
X163235412Y-70886635D01*
X163244984Y-70838510D01*
X163259228Y-70791555D01*
X163278005Y-70746222D01*
X163301136Y-70702949D01*
X163328396Y-70662150D01*
X163359524Y-70624221D01*
X163394221Y-70589524D01*
X163432150Y-70558396D01*
X163472949Y-70531136D01*
X163516222Y-70508005D01*
X163561555Y-70489228D01*
X163608510Y-70474984D01*
X163656635Y-70465412D01*
X163705466Y-70460602D01*
X163730000Y-70460602D01*
X163730000Y-70460000D01*
X164230000Y-70460000D01*
X164230000Y-70460602D01*
X164254534Y-70460602D01*
X164303365Y-70465412D01*
X164351490Y-70474984D01*
X164398445Y-70489228D01*
X164443778Y-70508005D01*
X164487051Y-70531136D01*
X164527850Y-70558396D01*
X164565779Y-70589524D01*
X164600476Y-70624221D01*
X164631604Y-70662150D01*
X164658864Y-70702949D01*
X164681995Y-70746222D01*
X164700772Y-70791555D01*
X164715016Y-70838510D01*
X164724588Y-70886635D01*
X164729398Y-70935466D01*
X164729398Y-70960000D01*
X164730000Y-70960000D01*
X164730000Y-71460000D01*
X163230000Y-71460000D01*
X163230000Y-70960000D01*
X163230602Y-70960000D01*
G37*
%TD*%
%TO.C,5V*%
G36*
X163230602Y-67490000D02*
G01*
X163230602Y-67465466D01*
X163235412Y-67416635D01*
X163244984Y-67368510D01*
X163259228Y-67321555D01*
X163278005Y-67276222D01*
X163301136Y-67232949D01*
X163328396Y-67192150D01*
X163359524Y-67154221D01*
X163394221Y-67119524D01*
X163432150Y-67088396D01*
X163472949Y-67061136D01*
X163516222Y-67038005D01*
X163561555Y-67019228D01*
X163608510Y-67004984D01*
X163656635Y-66995412D01*
X163705466Y-66990602D01*
X163730000Y-66990602D01*
X163730000Y-66990000D01*
X164230000Y-66990000D01*
X164230000Y-66990602D01*
X164254534Y-66990602D01*
X164303365Y-66995412D01*
X164351490Y-67004984D01*
X164398445Y-67019228D01*
X164443778Y-67038005D01*
X164487051Y-67061136D01*
X164527850Y-67088396D01*
X164565779Y-67119524D01*
X164600476Y-67154221D01*
X164631604Y-67192150D01*
X164658864Y-67232949D01*
X164681995Y-67276222D01*
X164700772Y-67321555D01*
X164715016Y-67368510D01*
X164724588Y-67416635D01*
X164729398Y-67465466D01*
X164729398Y-67490000D01*
X164730000Y-67490000D01*
X164730000Y-67990000D01*
X163230000Y-67990000D01*
X163230000Y-67490000D01*
X163230602Y-67490000D01*
G37*
G36*
X164730000Y-68290000D02*
G01*
X164730000Y-68790000D01*
X164729398Y-68790000D01*
X164729398Y-68814534D01*
X164724588Y-68863365D01*
X164715016Y-68911490D01*
X164700772Y-68958445D01*
X164681995Y-69003778D01*
X164658864Y-69047051D01*
X164631604Y-69087850D01*
X164600476Y-69125779D01*
X164565779Y-69160476D01*
X164527850Y-69191604D01*
X164487051Y-69218864D01*
X164443778Y-69241995D01*
X164398445Y-69260772D01*
X164351490Y-69275016D01*
X164303365Y-69284588D01*
X164254534Y-69289398D01*
X164230000Y-69289398D01*
X164230000Y-69290000D01*
X163730000Y-69290000D01*
X163730000Y-69289398D01*
X163705466Y-69289398D01*
X163656635Y-69284588D01*
X163608510Y-69275016D01*
X163561555Y-69260772D01*
X163516222Y-69241995D01*
X163472949Y-69218864D01*
X163432150Y-69191604D01*
X163394221Y-69160476D01*
X163359524Y-69125779D01*
X163328396Y-69087850D01*
X163301136Y-69047051D01*
X163278005Y-69003778D01*
X163259228Y-68958445D01*
X163244984Y-68911490D01*
X163235412Y-68863365D01*
X163230602Y-68814534D01*
X163230602Y-68790000D01*
X163230000Y-68790000D01*
X163230000Y-68290000D01*
X164730000Y-68290000D01*
G37*
%TD*%
%TO.C,J26*%
G36*
G01*
X177493328Y-51635000D02*
X177493328Y-53085000D01*
G75*
G02*
X177243328Y-53335000I-250000J0D01*
G01*
X176043328Y-53335000D01*
G75*
G02*
X175793328Y-53085000I0J250000D01*
G01*
X175793328Y-51635000D01*
G75*
G02*
X176043328Y-51385000I250000J0D01*
G01*
X177243328Y-51385000D01*
G75*
G02*
X177493328Y-51635000I0J-250000D01*
G01*
G37*
D22*
X174143328Y-52360000D03*
X171643328Y-52360000D03*
X169143328Y-52360000D03*
%TD*%
%TO.C,J27*%
X92548888Y-52360000D03*
X95048888Y-52360000D03*
X97548888Y-52360000D03*
G36*
G01*
X100898888Y-51635000D02*
X100898888Y-53085000D01*
G75*
G02*
X100648888Y-53335000I-250000J0D01*
G01*
X99448888Y-53335000D01*
G75*
G02*
X99198888Y-53085000I0J250000D01*
G01*
X99198888Y-51635000D01*
G75*
G02*
X99448888Y-51385000I250000J0D01*
G01*
X100648888Y-51385000D01*
G75*
G02*
X100898888Y-51635000I0J-250000D01*
G01*
G37*
%TD*%
%TO.C,J28*%
G36*
G01*
X221800000Y-51635000D02*
X221800000Y-53085000D01*
G75*
G02*
X221550000Y-53335000I-250000J0D01*
G01*
X220350000Y-53335000D01*
G75*
G02*
X220100000Y-53085000I0J250000D01*
G01*
X220100000Y-51635000D01*
G75*
G02*
X220350000Y-51385000I250000J0D01*
G01*
X221550000Y-51385000D01*
G75*
G02*
X221800000Y-51635000I0J-250000D01*
G01*
G37*
X218450000Y-52360000D03*
X215950000Y-52360000D03*
X213450000Y-52360000D03*
%TD*%
%TO.C,J29*%
X122810000Y-52360000D03*
X125310000Y-52360000D03*
X127810000Y-52360000D03*
G36*
G01*
X131160000Y-51635000D02*
X131160000Y-53085000D01*
G75*
G02*
X130910000Y-53335000I-250000J0D01*
G01*
X129710000Y-53335000D01*
G75*
G02*
X129460000Y-53085000I0J250000D01*
G01*
X129460000Y-51635000D01*
G75*
G02*
X129710000Y-51385000I250000J0D01*
G01*
X130910000Y-51385000D01*
G75*
G02*
X131160000Y-51635000I0J-250000D01*
G01*
G37*
%TD*%
%TO.C,J30*%
X153024440Y-52360000D03*
X155524440Y-52360000D03*
X158024440Y-52360000D03*
G36*
G01*
X161374440Y-51635000D02*
X161374440Y-53085000D01*
G75*
G02*
X161124440Y-53335000I-250000J0D01*
G01*
X159924440Y-53335000D01*
G75*
G02*
X159674440Y-53085000I0J250000D01*
G01*
X159674440Y-51635000D01*
G75*
G02*
X159924440Y-51385000I250000J0D01*
G01*
X161124440Y-51385000D01*
G75*
G02*
X161374440Y-51635000I0J-250000D01*
G01*
G37*
%TD*%
%TO.C,J31*%
X183262216Y-52360000D03*
X185762216Y-52360000D03*
X188262216Y-52360000D03*
G36*
G01*
X191612216Y-51635000D02*
X191612216Y-53085000D01*
G75*
G02*
X191362216Y-53335000I-250000J0D01*
G01*
X190162216Y-53335000D01*
G75*
G02*
X189912216Y-53085000I0J250000D01*
G01*
X189912216Y-51635000D01*
G75*
G02*
X190162216Y-51385000I250000J0D01*
G01*
X191362216Y-51385000D01*
G75*
G02*
X191612216Y-51635000I0J-250000D01*
G01*
G37*
%TD*%
D24*
%TO.C,L1*%
X160310000Y-107540000D03*
X160310000Y-99240000D03*
%TD*%
%TO.C,L2*%
X113610000Y-98710000D03*
X113610000Y-107010000D03*
%TD*%
D25*
%TO.C,Q1*%
X96640000Y-134330000D03*
X96640000Y-132050000D03*
X96640000Y-129770000D03*
D26*
X90340000Y-132050000D03*
%TD*%
%TO.C,R1*%
G36*
G01*
X173969999Y-104610000D02*
X174870001Y-104610000D01*
G75*
G02*
X175120000Y-104859999I0J-249999D01*
G01*
X175120000Y-105560001D01*
G75*
G02*
X174870001Y-105810000I-249999J0D01*
G01*
X173969999Y-105810000D01*
G75*
G02*
X173720000Y-105560001I0J249999D01*
G01*
X173720000Y-104859999D01*
G75*
G02*
X173969999Y-104610000I249999J0D01*
G01*
G37*
G36*
G01*
X173969999Y-102610000D02*
X174870001Y-102610000D01*
G75*
G02*
X175120000Y-102859999I0J-249999D01*
G01*
X175120000Y-103560001D01*
G75*
G02*
X174870001Y-103810000I-249999J0D01*
G01*
X173969999Y-103810000D01*
G75*
G02*
X173720000Y-103560001I0J249999D01*
G01*
X173720000Y-102859999D01*
G75*
G02*
X173969999Y-102610000I249999J0D01*
G01*
G37*
%TD*%
%TO.C,R2*%
G36*
G01*
X175670000Y-136629999D02*
X175670000Y-137530001D01*
G75*
G02*
X175420001Y-137780000I-249999J0D01*
G01*
X174719999Y-137780000D01*
G75*
G02*
X174470000Y-137530001I0J249999D01*
G01*
X174470000Y-136629999D01*
G75*
G02*
X174719999Y-136380000I249999J0D01*
G01*
X175420001Y-136380000D01*
G75*
G02*
X175670000Y-136629999I0J-249999D01*
G01*
G37*
G36*
G01*
X173670000Y-136629999D02*
X173670000Y-137530001D01*
G75*
G02*
X173420001Y-137780000I-249999J0D01*
G01*
X172719999Y-137780000D01*
G75*
G02*
X172470000Y-137530001I0J249999D01*
G01*
X172470000Y-136629999D01*
G75*
G02*
X172719999Y-136380000I249999J0D01*
G01*
X173420001Y-136380000D01*
G75*
G02*
X173670000Y-136629999I0J-249999D01*
G01*
G37*
%TD*%
%TO.C,R3*%
G36*
G01*
X173630000Y-138929999D02*
X173630000Y-139830001D01*
G75*
G02*
X173380001Y-140080000I-249999J0D01*
G01*
X172679999Y-140080000D01*
G75*
G02*
X172430000Y-139830001I0J249999D01*
G01*
X172430000Y-138929999D01*
G75*
G02*
X172679999Y-138680000I249999J0D01*
G01*
X173380001Y-138680000D01*
G75*
G02*
X173630000Y-138929999I0J-249999D01*
G01*
G37*
G36*
G01*
X175630000Y-138929999D02*
X175630000Y-139830001D01*
G75*
G02*
X175380001Y-140080000I-249999J0D01*
G01*
X174679999Y-140080000D01*
G75*
G02*
X174430000Y-139830001I0J249999D01*
G01*
X174430000Y-138929999D01*
G75*
G02*
X174679999Y-138680000I249999J0D01*
G01*
X175380001Y-138680000D01*
G75*
G02*
X175630000Y-138929999I0J-249999D01*
G01*
G37*
%TD*%
%TO.C,R4*%
G36*
G01*
X154640001Y-145577500D02*
X153739999Y-145577500D01*
G75*
G02*
X153490000Y-145327501I0J249999D01*
G01*
X153490000Y-144627499D01*
G75*
G02*
X153739999Y-144377500I249999J0D01*
G01*
X154640001Y-144377500D01*
G75*
G02*
X154890000Y-144627499I0J-249999D01*
G01*
X154890000Y-145327501D01*
G75*
G02*
X154640001Y-145577500I-249999J0D01*
G01*
G37*
G36*
G01*
X154640001Y-143577500D02*
X153739999Y-143577500D01*
G75*
G02*
X153490000Y-143327501I0J249999D01*
G01*
X153490000Y-142627499D01*
G75*
G02*
X153739999Y-142377500I249999J0D01*
G01*
X154640001Y-142377500D01*
G75*
G02*
X154890000Y-142627499I0J-249999D01*
G01*
X154890000Y-143327501D01*
G75*
G02*
X154640001Y-143577500I-249999J0D01*
G01*
G37*
%TD*%
%TO.C,R5*%
G36*
G01*
X152100001Y-143577500D02*
X151199999Y-143577500D01*
G75*
G02*
X150950000Y-143327501I0J249999D01*
G01*
X150950000Y-142627499D01*
G75*
G02*
X151199999Y-142377500I249999J0D01*
G01*
X152100001Y-142377500D01*
G75*
G02*
X152350000Y-142627499I0J-249999D01*
G01*
X152350000Y-143327501D01*
G75*
G02*
X152100001Y-143577500I-249999J0D01*
G01*
G37*
G36*
G01*
X152100001Y-145577500D02*
X151199999Y-145577500D01*
G75*
G02*
X150950000Y-145327501I0J249999D01*
G01*
X150950000Y-144627499D01*
G75*
G02*
X151199999Y-144377500I249999J0D01*
G01*
X152100001Y-144377500D01*
G75*
G02*
X152350000Y-144627499I0J-249999D01*
G01*
X152350000Y-145327501D01*
G75*
G02*
X152100001Y-145577500I-249999J0D01*
G01*
G37*
%TD*%
%TO.C,R6*%
G36*
G01*
X149560001Y-145577500D02*
X148659999Y-145577500D01*
G75*
G02*
X148410000Y-145327501I0J249999D01*
G01*
X148410000Y-144627499D01*
G75*
G02*
X148659999Y-144377500I249999J0D01*
G01*
X149560001Y-144377500D01*
G75*
G02*
X149810000Y-144627499I0J-249999D01*
G01*
X149810000Y-145327501D01*
G75*
G02*
X149560001Y-145577500I-249999J0D01*
G01*
G37*
G36*
G01*
X149560001Y-143577500D02*
X148659999Y-143577500D01*
G75*
G02*
X148410000Y-143327501I0J249999D01*
G01*
X148410000Y-142627499D01*
G75*
G02*
X148659999Y-142377500I249999J0D01*
G01*
X149560001Y-142377500D01*
G75*
G02*
X149810000Y-142627499I0J-249999D01*
G01*
X149810000Y-143327501D01*
G75*
G02*
X149560001Y-143577500I-249999J0D01*
G01*
G37*
%TD*%
%TO.C,R7*%
G36*
G01*
X147020001Y-145577500D02*
X146119999Y-145577500D01*
G75*
G02*
X145870000Y-145327501I0J249999D01*
G01*
X145870000Y-144627499D01*
G75*
G02*
X146119999Y-144377500I249999J0D01*
G01*
X147020001Y-144377500D01*
G75*
G02*
X147270000Y-144627499I0J-249999D01*
G01*
X147270000Y-145327501D01*
G75*
G02*
X147020001Y-145577500I-249999J0D01*
G01*
G37*
G36*
G01*
X147020001Y-143577500D02*
X146119999Y-143577500D01*
G75*
G02*
X145870000Y-143327501I0J249999D01*
G01*
X145870000Y-142627499D01*
G75*
G02*
X146119999Y-142377500I249999J0D01*
G01*
X147020001Y-142377500D01*
G75*
G02*
X147270000Y-142627499I0J-249999D01*
G01*
X147270000Y-143327501D01*
G75*
G02*
X147020001Y-143577500I-249999J0D01*
G01*
G37*
%TD*%
%TO.C,R8*%
G36*
G01*
X208560000Y-139190001D02*
X208560000Y-138289999D01*
G75*
G02*
X208809999Y-138040000I249999J0D01*
G01*
X209510001Y-138040000D01*
G75*
G02*
X209760000Y-138289999I0J-249999D01*
G01*
X209760000Y-139190001D01*
G75*
G02*
X209510001Y-139440000I-249999J0D01*
G01*
X208809999Y-139440000D01*
G75*
G02*
X208560000Y-139190001I0J249999D01*
G01*
G37*
G36*
G01*
X210560000Y-139190001D02*
X210560000Y-138289999D01*
G75*
G02*
X210809999Y-138040000I249999J0D01*
G01*
X211510001Y-138040000D01*
G75*
G02*
X211760000Y-138289999I0J-249999D01*
G01*
X211760000Y-139190001D01*
G75*
G02*
X211510001Y-139440000I-249999J0D01*
G01*
X210809999Y-139440000D01*
G75*
G02*
X210560000Y-139190001I0J249999D01*
G01*
G37*
%TD*%
%TO.C,R9*%
G36*
G01*
X218020001Y-140440000D02*
X217119999Y-140440000D01*
G75*
G02*
X216870000Y-140190001I0J249999D01*
G01*
X216870000Y-139489999D01*
G75*
G02*
X217119999Y-139240000I249999J0D01*
G01*
X218020001Y-139240000D01*
G75*
G02*
X218270000Y-139489999I0J-249999D01*
G01*
X218270000Y-140190001D01*
G75*
G02*
X218020001Y-140440000I-249999J0D01*
G01*
G37*
G36*
G01*
X218020001Y-142440000D02*
X217119999Y-142440000D01*
G75*
G02*
X216870000Y-142190001I0J249999D01*
G01*
X216870000Y-141489999D01*
G75*
G02*
X217119999Y-141240000I249999J0D01*
G01*
X218020001Y-141240000D01*
G75*
G02*
X218270000Y-141489999I0J-249999D01*
G01*
X218270000Y-142190001D01*
G75*
G02*
X218020001Y-142440000I-249999J0D01*
G01*
G37*
%TD*%
%TO.C,R10*%
G36*
G01*
X215660001Y-140440000D02*
X214759999Y-140440000D01*
G75*
G02*
X214510000Y-140190001I0J249999D01*
G01*
X214510000Y-139489999D01*
G75*
G02*
X214759999Y-139240000I249999J0D01*
G01*
X215660001Y-139240000D01*
G75*
G02*
X215910000Y-139489999I0J-249999D01*
G01*
X215910000Y-140190001D01*
G75*
G02*
X215660001Y-140440000I-249999J0D01*
G01*
G37*
G36*
G01*
X215660001Y-142440000D02*
X214759999Y-142440000D01*
G75*
G02*
X214510000Y-142190001I0J249999D01*
G01*
X214510000Y-141489999D01*
G75*
G02*
X214759999Y-141240000I249999J0D01*
G01*
X215660001Y-141240000D01*
G75*
G02*
X215910000Y-141489999I0J-249999D01*
G01*
X215910000Y-142190001D01*
G75*
G02*
X215660001Y-142440000I-249999J0D01*
G01*
G37*
%TD*%
%TO.C,R11*%
G36*
G01*
X210560000Y-141790001D02*
X210560000Y-140889999D01*
G75*
G02*
X210809999Y-140640000I249999J0D01*
G01*
X211510001Y-140640000D01*
G75*
G02*
X211760000Y-140889999I0J-249999D01*
G01*
X211760000Y-141790001D01*
G75*
G02*
X211510001Y-142040000I-249999J0D01*
G01*
X210809999Y-142040000D01*
G75*
G02*
X210560000Y-141790001I0J249999D01*
G01*
G37*
G36*
G01*
X208560000Y-141790001D02*
X208560000Y-140889999D01*
G75*
G02*
X208809999Y-140640000I249999J0D01*
G01*
X209510001Y-140640000D01*
G75*
G02*
X209760000Y-140889999I0J-249999D01*
G01*
X209760000Y-141790001D01*
G75*
G02*
X209510001Y-142040000I-249999J0D01*
G01*
X208809999Y-142040000D01*
G75*
G02*
X208560000Y-141790001I0J249999D01*
G01*
G37*
%TD*%
%TO.C,R12*%
G36*
G01*
X99930001Y-135300000D02*
X99029999Y-135300000D01*
G75*
G02*
X98780000Y-135050001I0J249999D01*
G01*
X98780000Y-134349999D01*
G75*
G02*
X99029999Y-134100000I249999J0D01*
G01*
X99930001Y-134100000D01*
G75*
G02*
X100180000Y-134349999I0J-249999D01*
G01*
X100180000Y-135050001D01*
G75*
G02*
X99930001Y-135300000I-249999J0D01*
G01*
G37*
G36*
G01*
X99930001Y-133300000D02*
X99029999Y-133300000D01*
G75*
G02*
X98780000Y-133050001I0J249999D01*
G01*
X98780000Y-132349999D01*
G75*
G02*
X99029999Y-132100000I249999J0D01*
G01*
X99930001Y-132100000D01*
G75*
G02*
X100180000Y-132349999I0J-249999D01*
G01*
X100180000Y-133050001D01*
G75*
G02*
X99930001Y-133300000I-249999J0D01*
G01*
G37*
%TD*%
%TO.C,R13*%
G36*
G01*
X94598887Y-55260000D02*
X95498889Y-55260000D01*
G75*
G02*
X95748888Y-55509999I0J-249999D01*
G01*
X95748888Y-56210001D01*
G75*
G02*
X95498889Y-56460000I-249999J0D01*
G01*
X94598887Y-56460000D01*
G75*
G02*
X94348888Y-56210001I0J249999D01*
G01*
X94348888Y-55509999D01*
G75*
G02*
X94598887Y-55260000I249999J0D01*
G01*
G37*
G36*
G01*
X94598887Y-57260000D02*
X95498889Y-57260000D01*
G75*
G02*
X95748888Y-57509999I0J-249999D01*
G01*
X95748888Y-58210001D01*
G75*
G02*
X95498889Y-58460000I-249999J0D01*
G01*
X94598887Y-58460000D01*
G75*
G02*
X94348888Y-58210001I0J249999D01*
G01*
X94348888Y-57509999D01*
G75*
G02*
X94598887Y-57260000I249999J0D01*
G01*
G37*
%TD*%
%TO.C,R14*%
G36*
G01*
X92098887Y-57270000D02*
X92998889Y-57270000D01*
G75*
G02*
X93248888Y-57519999I0J-249999D01*
G01*
X93248888Y-58220001D01*
G75*
G02*
X92998889Y-58470000I-249999J0D01*
G01*
X92098887Y-58470000D01*
G75*
G02*
X91848888Y-58220001I0J249999D01*
G01*
X91848888Y-57519999D01*
G75*
G02*
X92098887Y-57270000I249999J0D01*
G01*
G37*
G36*
G01*
X92098887Y-55270000D02*
X92998889Y-55270000D01*
G75*
G02*
X93248888Y-55519999I0J-249999D01*
G01*
X93248888Y-56220001D01*
G75*
G02*
X92998889Y-56470000I-249999J0D01*
G01*
X92098887Y-56470000D01*
G75*
G02*
X91848888Y-56220001I0J249999D01*
G01*
X91848888Y-55519999D01*
G75*
G02*
X92098887Y-55270000I249999J0D01*
G01*
G37*
%TD*%
%TO.C,R15*%
G36*
G01*
X97098887Y-55250000D02*
X97998889Y-55250000D01*
G75*
G02*
X98248888Y-55499999I0J-249999D01*
G01*
X98248888Y-56200001D01*
G75*
G02*
X97998889Y-56450000I-249999J0D01*
G01*
X97098887Y-56450000D01*
G75*
G02*
X96848888Y-56200001I0J249999D01*
G01*
X96848888Y-55499999D01*
G75*
G02*
X97098887Y-55250000I249999J0D01*
G01*
G37*
G36*
G01*
X97098887Y-57250000D02*
X97998889Y-57250000D01*
G75*
G02*
X98248888Y-57499999I0J-249999D01*
G01*
X98248888Y-58200001D01*
G75*
G02*
X97998889Y-58450000I-249999J0D01*
G01*
X97098887Y-58450000D01*
G75*
G02*
X96848888Y-58200001I0J249999D01*
G01*
X96848888Y-57499999D01*
G75*
G02*
X97098887Y-57250000I249999J0D01*
G01*
G37*
%TD*%
%TO.C,R16*%
G36*
G01*
X99598887Y-57250000D02*
X100498889Y-57250000D01*
G75*
G02*
X100748888Y-57499999I0J-249999D01*
G01*
X100748888Y-58200001D01*
G75*
G02*
X100498889Y-58450000I-249999J0D01*
G01*
X99598887Y-58450000D01*
G75*
G02*
X99348888Y-58200001I0J249999D01*
G01*
X99348888Y-57499999D01*
G75*
G02*
X99598887Y-57250000I249999J0D01*
G01*
G37*
G36*
G01*
X99598887Y-55250000D02*
X100498889Y-55250000D01*
G75*
G02*
X100748888Y-55499999I0J-249999D01*
G01*
X100748888Y-56200001D01*
G75*
G02*
X100498889Y-56450000I-249999J0D01*
G01*
X99598887Y-56450000D01*
G75*
G02*
X99348888Y-56200001I0J249999D01*
G01*
X99348888Y-55499999D01*
G75*
G02*
X99598887Y-55250000I249999J0D01*
G01*
G37*
%TD*%
%TO.C,R17*%
G36*
G01*
X215549999Y-55250000D02*
X216450001Y-55250000D01*
G75*
G02*
X216700000Y-55499999I0J-249999D01*
G01*
X216700000Y-56200001D01*
G75*
G02*
X216450001Y-56450000I-249999J0D01*
G01*
X215549999Y-56450000D01*
G75*
G02*
X215300000Y-56200001I0J249999D01*
G01*
X215300000Y-55499999D01*
G75*
G02*
X215549999Y-55250000I249999J0D01*
G01*
G37*
G36*
G01*
X215549999Y-57250000D02*
X216450001Y-57250000D01*
G75*
G02*
X216700000Y-57499999I0J-249999D01*
G01*
X216700000Y-58200001D01*
G75*
G02*
X216450001Y-58450000I-249999J0D01*
G01*
X215549999Y-58450000D01*
G75*
G02*
X215300000Y-58200001I0J249999D01*
G01*
X215300000Y-57499999D01*
G75*
G02*
X215549999Y-57250000I249999J0D01*
G01*
G37*
%TD*%
%TO.C,R18*%
G36*
G01*
X212999999Y-57250000D02*
X213900001Y-57250000D01*
G75*
G02*
X214150000Y-57499999I0J-249999D01*
G01*
X214150000Y-58200001D01*
G75*
G02*
X213900001Y-58450000I-249999J0D01*
G01*
X212999999Y-58450000D01*
G75*
G02*
X212750000Y-58200001I0J249999D01*
G01*
X212750000Y-57499999D01*
G75*
G02*
X212999999Y-57250000I249999J0D01*
G01*
G37*
G36*
G01*
X212999999Y-55250000D02*
X213900001Y-55250000D01*
G75*
G02*
X214150000Y-55499999I0J-249999D01*
G01*
X214150000Y-56200001D01*
G75*
G02*
X213900001Y-56450000I-249999J0D01*
G01*
X212999999Y-56450000D01*
G75*
G02*
X212750000Y-56200001I0J249999D01*
G01*
X212750000Y-55499999D01*
G75*
G02*
X212999999Y-55250000I249999J0D01*
G01*
G37*
%TD*%
%TO.C,R19*%
G36*
G01*
X218049999Y-55250000D02*
X218950001Y-55250000D01*
G75*
G02*
X219200000Y-55499999I0J-249999D01*
G01*
X219200000Y-56200001D01*
G75*
G02*
X218950001Y-56450000I-249999J0D01*
G01*
X218049999Y-56450000D01*
G75*
G02*
X217800000Y-56200001I0J249999D01*
G01*
X217800000Y-55499999D01*
G75*
G02*
X218049999Y-55250000I249999J0D01*
G01*
G37*
G36*
G01*
X218049999Y-57250000D02*
X218950001Y-57250000D01*
G75*
G02*
X219200000Y-57499999I0J-249999D01*
G01*
X219200000Y-58200001D01*
G75*
G02*
X218950001Y-58450000I-249999J0D01*
G01*
X218049999Y-58450000D01*
G75*
G02*
X217800000Y-58200001I0J249999D01*
G01*
X217800000Y-57499999D01*
G75*
G02*
X218049999Y-57250000I249999J0D01*
G01*
G37*
%TD*%
%TO.C,R20*%
G36*
G01*
X220549999Y-55250000D02*
X221450001Y-55250000D01*
G75*
G02*
X221700000Y-55499999I0J-249999D01*
G01*
X221700000Y-56200001D01*
G75*
G02*
X221450001Y-56450000I-249999J0D01*
G01*
X220549999Y-56450000D01*
G75*
G02*
X220300000Y-56200001I0J249999D01*
G01*
X220300000Y-55499999D01*
G75*
G02*
X220549999Y-55250000I249999J0D01*
G01*
G37*
G36*
G01*
X220549999Y-57250000D02*
X221450001Y-57250000D01*
G75*
G02*
X221700000Y-57499999I0J-249999D01*
G01*
X221700000Y-58200001D01*
G75*
G02*
X221450001Y-58450000I-249999J0D01*
G01*
X220549999Y-58450000D01*
G75*
G02*
X220300000Y-58200001I0J249999D01*
G01*
X220300000Y-57499999D01*
G75*
G02*
X220549999Y-57250000I249999J0D01*
G01*
G37*
%TD*%
%TO.C,R21*%
G36*
G01*
X124836663Y-55250000D02*
X125736665Y-55250000D01*
G75*
G02*
X125986664Y-55499999I0J-249999D01*
G01*
X125986664Y-56200001D01*
G75*
G02*
X125736665Y-56450000I-249999J0D01*
G01*
X124836663Y-56450000D01*
G75*
G02*
X124586664Y-56200001I0J249999D01*
G01*
X124586664Y-55499999D01*
G75*
G02*
X124836663Y-55250000I249999J0D01*
G01*
G37*
G36*
G01*
X124836663Y-57250000D02*
X125736665Y-57250000D01*
G75*
G02*
X125986664Y-57499999I0J-249999D01*
G01*
X125986664Y-58200001D01*
G75*
G02*
X125736665Y-58450000I-249999J0D01*
G01*
X124836663Y-58450000D01*
G75*
G02*
X124586664Y-58200001I0J249999D01*
G01*
X124586664Y-57499999D01*
G75*
G02*
X124836663Y-57250000I249999J0D01*
G01*
G37*
%TD*%
%TO.C,R22*%
G36*
G01*
X122359999Y-57250000D02*
X123260001Y-57250000D01*
G75*
G02*
X123510000Y-57499999I0J-249999D01*
G01*
X123510000Y-58200001D01*
G75*
G02*
X123260001Y-58450000I-249999J0D01*
G01*
X122359999Y-58450000D01*
G75*
G02*
X122110000Y-58200001I0J249999D01*
G01*
X122110000Y-57499999D01*
G75*
G02*
X122359999Y-57250000I249999J0D01*
G01*
G37*
G36*
G01*
X122359999Y-55250000D02*
X123260001Y-55250000D01*
G75*
G02*
X123510000Y-55499999I0J-249999D01*
G01*
X123510000Y-56200001D01*
G75*
G02*
X123260001Y-56450000I-249999J0D01*
G01*
X122359999Y-56450000D01*
G75*
G02*
X122110000Y-56200001I0J249999D01*
G01*
X122110000Y-55499999D01*
G75*
G02*
X122359999Y-55250000I249999J0D01*
G01*
G37*
%TD*%
%TO.C,R23*%
G36*
G01*
X127336663Y-55250000D02*
X128236665Y-55250000D01*
G75*
G02*
X128486664Y-55499999I0J-249999D01*
G01*
X128486664Y-56200001D01*
G75*
G02*
X128236665Y-56450000I-249999J0D01*
G01*
X127336663Y-56450000D01*
G75*
G02*
X127086664Y-56200001I0J249999D01*
G01*
X127086664Y-55499999D01*
G75*
G02*
X127336663Y-55250000I249999J0D01*
G01*
G37*
G36*
G01*
X127336663Y-57250000D02*
X128236665Y-57250000D01*
G75*
G02*
X128486664Y-57499999I0J-249999D01*
G01*
X128486664Y-58200001D01*
G75*
G02*
X128236665Y-58450000I-249999J0D01*
G01*
X127336663Y-58450000D01*
G75*
G02*
X127086664Y-58200001I0J249999D01*
G01*
X127086664Y-57499999D01*
G75*
G02*
X127336663Y-57250000I249999J0D01*
G01*
G37*
%TD*%
%TO.C,R24*%
G36*
G01*
X129836663Y-57250000D02*
X130736665Y-57250000D01*
G75*
G02*
X130986664Y-57499999I0J-249999D01*
G01*
X130986664Y-58200001D01*
G75*
G02*
X130736665Y-58450000I-249999J0D01*
G01*
X129836663Y-58450000D01*
G75*
G02*
X129586664Y-58200001I0J249999D01*
G01*
X129586664Y-57499999D01*
G75*
G02*
X129836663Y-57250000I249999J0D01*
G01*
G37*
G36*
G01*
X129836663Y-55250000D02*
X130736665Y-55250000D01*
G75*
G02*
X130986664Y-55499999I0J-249999D01*
G01*
X130986664Y-56200001D01*
G75*
G02*
X130736665Y-56450000I-249999J0D01*
G01*
X129836663Y-56450000D01*
G75*
G02*
X129586664Y-56200001I0J249999D01*
G01*
X129586664Y-55499999D01*
G75*
G02*
X129836663Y-55250000I249999J0D01*
G01*
G37*
%TD*%
%TO.C,R25*%
G36*
G01*
X155074439Y-57250000D02*
X155974441Y-57250000D01*
G75*
G02*
X156224440Y-57499999I0J-249999D01*
G01*
X156224440Y-58200001D01*
G75*
G02*
X155974441Y-58450000I-249999J0D01*
G01*
X155074439Y-58450000D01*
G75*
G02*
X154824440Y-58200001I0J249999D01*
G01*
X154824440Y-57499999D01*
G75*
G02*
X155074439Y-57250000I249999J0D01*
G01*
G37*
G36*
G01*
X155074439Y-55250000D02*
X155974441Y-55250000D01*
G75*
G02*
X156224440Y-55499999I0J-249999D01*
G01*
X156224440Y-56200001D01*
G75*
G02*
X155974441Y-56450000I-249999J0D01*
G01*
X155074439Y-56450000D01*
G75*
G02*
X154824440Y-56200001I0J249999D01*
G01*
X154824440Y-55499999D01*
G75*
G02*
X155074439Y-55250000I249999J0D01*
G01*
G37*
%TD*%
%TO.C,R26*%
G36*
G01*
X152574439Y-57250000D02*
X153474441Y-57250000D01*
G75*
G02*
X153724440Y-57499999I0J-249999D01*
G01*
X153724440Y-58200001D01*
G75*
G02*
X153474441Y-58450000I-249999J0D01*
G01*
X152574439Y-58450000D01*
G75*
G02*
X152324440Y-58200001I0J249999D01*
G01*
X152324440Y-57499999D01*
G75*
G02*
X152574439Y-57250000I249999J0D01*
G01*
G37*
G36*
G01*
X152574439Y-55250000D02*
X153474441Y-55250000D01*
G75*
G02*
X153724440Y-55499999I0J-249999D01*
G01*
X153724440Y-56200001D01*
G75*
G02*
X153474441Y-56450000I-249999J0D01*
G01*
X152574439Y-56450000D01*
G75*
G02*
X152324440Y-56200001I0J249999D01*
G01*
X152324440Y-55499999D01*
G75*
G02*
X152574439Y-55250000I249999J0D01*
G01*
G37*
%TD*%
%TO.C,R27*%
G36*
G01*
X157574439Y-57250000D02*
X158474441Y-57250000D01*
G75*
G02*
X158724440Y-57499999I0J-249999D01*
G01*
X158724440Y-58200001D01*
G75*
G02*
X158474441Y-58450000I-249999J0D01*
G01*
X157574439Y-58450000D01*
G75*
G02*
X157324440Y-58200001I0J249999D01*
G01*
X157324440Y-57499999D01*
G75*
G02*
X157574439Y-57250000I249999J0D01*
G01*
G37*
G36*
G01*
X157574439Y-55250000D02*
X158474441Y-55250000D01*
G75*
G02*
X158724440Y-55499999I0J-249999D01*
G01*
X158724440Y-56200001D01*
G75*
G02*
X158474441Y-56450000I-249999J0D01*
G01*
X157574439Y-56450000D01*
G75*
G02*
X157324440Y-56200001I0J249999D01*
G01*
X157324440Y-55499999D01*
G75*
G02*
X157574439Y-55250000I249999J0D01*
G01*
G37*
%TD*%
%TO.C,R28*%
G36*
G01*
X160074439Y-55250000D02*
X160974441Y-55250000D01*
G75*
G02*
X161224440Y-55499999I0J-249999D01*
G01*
X161224440Y-56200001D01*
G75*
G02*
X160974441Y-56450000I-249999J0D01*
G01*
X160074439Y-56450000D01*
G75*
G02*
X159824440Y-56200001I0J249999D01*
G01*
X159824440Y-55499999D01*
G75*
G02*
X160074439Y-55250000I249999J0D01*
G01*
G37*
G36*
G01*
X160074439Y-57250000D02*
X160974441Y-57250000D01*
G75*
G02*
X161224440Y-57499999I0J-249999D01*
G01*
X161224440Y-58200001D01*
G75*
G02*
X160974441Y-58450000I-249999J0D01*
G01*
X160074439Y-58450000D01*
G75*
G02*
X159824440Y-58200001I0J249999D01*
G01*
X159824440Y-57499999D01*
G75*
G02*
X160074439Y-57250000I249999J0D01*
G01*
G37*
%TD*%
%TO.C,R29*%
G36*
G01*
X185312215Y-55250000D02*
X186212217Y-55250000D01*
G75*
G02*
X186462216Y-55499999I0J-249999D01*
G01*
X186462216Y-56200001D01*
G75*
G02*
X186212217Y-56450000I-249999J0D01*
G01*
X185312215Y-56450000D01*
G75*
G02*
X185062216Y-56200001I0J249999D01*
G01*
X185062216Y-55499999D01*
G75*
G02*
X185312215Y-55250000I249999J0D01*
G01*
G37*
G36*
G01*
X185312215Y-57250000D02*
X186212217Y-57250000D01*
G75*
G02*
X186462216Y-57499999I0J-249999D01*
G01*
X186462216Y-58200001D01*
G75*
G02*
X186212217Y-58450000I-249999J0D01*
G01*
X185312215Y-58450000D01*
G75*
G02*
X185062216Y-58200001I0J249999D01*
G01*
X185062216Y-57499999D01*
G75*
G02*
X185312215Y-57250000I249999J0D01*
G01*
G37*
%TD*%
%TO.C,R30*%
G36*
G01*
X182812215Y-57250000D02*
X183712217Y-57250000D01*
G75*
G02*
X183962216Y-57499999I0J-249999D01*
G01*
X183962216Y-58200001D01*
G75*
G02*
X183712217Y-58450000I-249999J0D01*
G01*
X182812215Y-58450000D01*
G75*
G02*
X182562216Y-58200001I0J249999D01*
G01*
X182562216Y-57499999D01*
G75*
G02*
X182812215Y-57250000I249999J0D01*
G01*
G37*
G36*
G01*
X182812215Y-55250000D02*
X183712217Y-55250000D01*
G75*
G02*
X183962216Y-55499999I0J-249999D01*
G01*
X183962216Y-56200001D01*
G75*
G02*
X183712217Y-56450000I-249999J0D01*
G01*
X182812215Y-56450000D01*
G75*
G02*
X182562216Y-56200001I0J249999D01*
G01*
X182562216Y-55499999D01*
G75*
G02*
X182812215Y-55250000I249999J0D01*
G01*
G37*
%TD*%
%TO.C,R31*%
G36*
G01*
X187812215Y-55250000D02*
X188712217Y-55250000D01*
G75*
G02*
X188962216Y-55499999I0J-249999D01*
G01*
X188962216Y-56200001D01*
G75*
G02*
X188712217Y-56450000I-249999J0D01*
G01*
X187812215Y-56450000D01*
G75*
G02*
X187562216Y-56200001I0J249999D01*
G01*
X187562216Y-55499999D01*
G75*
G02*
X187812215Y-55250000I249999J0D01*
G01*
G37*
G36*
G01*
X187812215Y-57250000D02*
X188712217Y-57250000D01*
G75*
G02*
X188962216Y-57499999I0J-249999D01*
G01*
X188962216Y-58200001D01*
G75*
G02*
X188712217Y-58450000I-249999J0D01*
G01*
X187812215Y-58450000D01*
G75*
G02*
X187562216Y-58200001I0J249999D01*
G01*
X187562216Y-57499999D01*
G75*
G02*
X187812215Y-57250000I249999J0D01*
G01*
G37*
%TD*%
%TO.C,R32*%
G36*
G01*
X190312215Y-57250000D02*
X191212217Y-57250000D01*
G75*
G02*
X191462216Y-57499999I0J-249999D01*
G01*
X191462216Y-58200001D01*
G75*
G02*
X191212217Y-58450000I-249999J0D01*
G01*
X190312215Y-58450000D01*
G75*
G02*
X190062216Y-58200001I0J249999D01*
G01*
X190062216Y-57499999D01*
G75*
G02*
X190312215Y-57250000I249999J0D01*
G01*
G37*
G36*
G01*
X190312215Y-55250000D02*
X191212217Y-55250000D01*
G75*
G02*
X191462216Y-55499999I0J-249999D01*
G01*
X191462216Y-56200001D01*
G75*
G02*
X191212217Y-56450000I-249999J0D01*
G01*
X190312215Y-56450000D01*
G75*
G02*
X190062216Y-56200001I0J249999D01*
G01*
X190062216Y-55499999D01*
G75*
G02*
X190312215Y-55250000I249999J0D01*
G01*
G37*
%TD*%
D27*
%TO.C,S1*%
X109727776Y-93610000D03*
X109727776Y-84710000D03*
X112267776Y-93610000D03*
X112267776Y-84710000D03*
X114807776Y-93610000D03*
X114807776Y-84710000D03*
%TD*%
%TO.C,S2*%
X145045552Y-84710000D03*
X145045552Y-93610000D03*
X142505552Y-84710000D03*
X142505552Y-93610000D03*
X139965552Y-84710000D03*
X139965552Y-93610000D03*
%TD*%
%TO.C,S3*%
X170203328Y-93610000D03*
X170203328Y-84710000D03*
X172743328Y-93610000D03*
X172743328Y-84710000D03*
X175283328Y-93610000D03*
X175283328Y-84710000D03*
%TD*%
D19*
%TO.C,D-*%
X162970000Y-135790000D03*
%TD*%
%TO.C,D+*%
X162970000Y-131210000D03*
%TD*%
%TO.C,GND*%
X100080000Y-148215001D03*
%TD*%
%TO.C,12V*%
X100080000Y-140590000D03*
%TD*%
%TO.C,3.3V*%
X163780000Y-115700000D03*
%TD*%
%TO.C,5V*%
X117080000Y-114990000D03*
%TD*%
D28*
%TO.C,U1*%
X186870000Y-107477500D03*
D29*
X179370000Y-99977500D03*
X179370000Y-101247500D03*
X179370000Y-102517500D03*
X179370000Y-103787500D03*
X179370000Y-105057500D03*
X179370000Y-106327500D03*
X179370000Y-107597500D03*
X179370000Y-108867500D03*
X179370000Y-110137500D03*
X179370000Y-111407500D03*
X179370000Y-112677500D03*
X179370000Y-113947500D03*
X179370000Y-115217500D03*
X179370000Y-116487500D03*
D30*
X182155000Y-117487500D03*
X183425000Y-117487500D03*
X184695000Y-117487500D03*
X185965000Y-117487500D03*
X187235000Y-117487500D03*
X188505000Y-117487500D03*
X189775000Y-117487500D03*
X191045000Y-117487500D03*
X192315000Y-117487500D03*
X193585000Y-117487500D03*
D29*
X196370000Y-116487500D03*
X196370000Y-115217500D03*
X196370000Y-113947500D03*
X196370000Y-112677500D03*
X196370000Y-111407500D03*
X196370000Y-110137500D03*
X196370000Y-108867500D03*
X196370000Y-107597500D03*
X196370000Y-106327500D03*
X196370000Y-105057500D03*
X196370000Y-103787500D03*
X196370000Y-102517500D03*
X196370000Y-101247500D03*
X196370000Y-99977500D03*
%TD*%
%TO.C,U2*%
G36*
G01*
X206875000Y-130345000D02*
X206875000Y-130595000D01*
G75*
G02*
X206750000Y-130720000I-125000J0D01*
G01*
X205100000Y-130720000D01*
G75*
G02*
X204975000Y-130595000I0J125000D01*
G01*
X204975000Y-130345000D01*
G75*
G02*
X205100000Y-130220000I125000J0D01*
G01*
X206750000Y-130220000D01*
G75*
G02*
X206875000Y-130345000I0J-125000D01*
G01*
G37*
G36*
G01*
X206875000Y-129695000D02*
X206875000Y-129945000D01*
G75*
G02*
X206750000Y-130070000I-125000J0D01*
G01*
X205100000Y-130070000D01*
G75*
G02*
X204975000Y-129945000I0J125000D01*
G01*
X204975000Y-129695000D01*
G75*
G02*
X205100000Y-129570000I125000J0D01*
G01*
X206750000Y-129570000D01*
G75*
G02*
X206875000Y-129695000I0J-125000D01*
G01*
G37*
G36*
G01*
X206875000Y-129045000D02*
X206875000Y-129295000D01*
G75*
G02*
X206750000Y-129420000I-125000J0D01*
G01*
X205100000Y-129420000D01*
G75*
G02*
X204975000Y-129295000I0J125000D01*
G01*
X204975000Y-129045000D01*
G75*
G02*
X205100000Y-128920000I125000J0D01*
G01*
X206750000Y-128920000D01*
G75*
G02*
X206875000Y-129045000I0J-125000D01*
G01*
G37*
G36*
G01*
X206875000Y-128395000D02*
X206875000Y-128645000D01*
G75*
G02*
X206750000Y-128770000I-125000J0D01*
G01*
X205100000Y-128770000D01*
G75*
G02*
X204975000Y-128645000I0J125000D01*
G01*
X204975000Y-128395000D01*
G75*
G02*
X205100000Y-128270000I125000J0D01*
G01*
X206750000Y-128270000D01*
G75*
G02*
X206875000Y-128395000I0J-125000D01*
G01*
G37*
G36*
G01*
X206875000Y-127745000D02*
X206875000Y-127995000D01*
G75*
G02*
X206750000Y-128120000I-125000J0D01*
G01*
X205100000Y-128120000D01*
G75*
G02*
X204975000Y-127995000I0J125000D01*
G01*
X204975000Y-127745000D01*
G75*
G02*
X205100000Y-127620000I125000J0D01*
G01*
X206750000Y-127620000D01*
G75*
G02*
X206875000Y-127745000I0J-125000D01*
G01*
G37*
G36*
G01*
X206875000Y-127095000D02*
X206875000Y-127345000D01*
G75*
G02*
X206750000Y-127470000I-125000J0D01*
G01*
X205100000Y-127470000D01*
G75*
G02*
X204975000Y-127345000I0J125000D01*
G01*
X204975000Y-127095000D01*
G75*
G02*
X205100000Y-126970000I125000J0D01*
G01*
X206750000Y-126970000D01*
G75*
G02*
X206875000Y-127095000I0J-125000D01*
G01*
G37*
G36*
G01*
X206875000Y-126445000D02*
X206875000Y-126695000D01*
G75*
G02*
X206750000Y-126820000I-125000J0D01*
G01*
X205100000Y-126820000D01*
G75*
G02*
X204975000Y-126695000I0J125000D01*
G01*
X204975000Y-126445000D01*
G75*
G02*
X205100000Y-126320000I125000J0D01*
G01*
X206750000Y-126320000D01*
G75*
G02*
X206875000Y-126445000I0J-125000D01*
G01*
G37*
G36*
G01*
X206875000Y-125795000D02*
X206875000Y-126045000D01*
G75*
G02*
X206750000Y-126170000I-125000J0D01*
G01*
X205100000Y-126170000D01*
G75*
G02*
X204975000Y-126045000I0J125000D01*
G01*
X204975000Y-125795000D01*
G75*
G02*
X205100000Y-125670000I125000J0D01*
G01*
X206750000Y-125670000D01*
G75*
G02*
X206875000Y-125795000I0J-125000D01*
G01*
G37*
G36*
G01*
X206875000Y-125145000D02*
X206875000Y-125395000D01*
G75*
G02*
X206750000Y-125520000I-125000J0D01*
G01*
X205100000Y-125520000D01*
G75*
G02*
X204975000Y-125395000I0J125000D01*
G01*
X204975000Y-125145000D01*
G75*
G02*
X205100000Y-125020000I125000J0D01*
G01*
X206750000Y-125020000D01*
G75*
G02*
X206875000Y-125145000I0J-125000D01*
G01*
G37*
G36*
G01*
X206875000Y-124495000D02*
X206875000Y-124745000D01*
G75*
G02*
X206750000Y-124870000I-125000J0D01*
G01*
X205100000Y-124870000D01*
G75*
G02*
X204975000Y-124745000I0J125000D01*
G01*
X204975000Y-124495000D01*
G75*
G02*
X205100000Y-124370000I125000J0D01*
G01*
X206750000Y-124370000D01*
G75*
G02*
X206875000Y-124495000I0J-125000D01*
G01*
G37*
G36*
G01*
X199875000Y-124495000D02*
X199875000Y-124745000D01*
G75*
G02*
X199750000Y-124870000I-125000J0D01*
G01*
X198100000Y-124870000D01*
G75*
G02*
X197975000Y-124745000I0J125000D01*
G01*
X197975000Y-124495000D01*
G75*
G02*
X198100000Y-124370000I125000J0D01*
G01*
X199750000Y-124370000D01*
G75*
G02*
X199875000Y-124495000I0J-125000D01*
G01*
G37*
G36*
G01*
X199875000Y-125145000D02*
X199875000Y-125395000D01*
G75*
G02*
X199750000Y-125520000I-125000J0D01*
G01*
X198100000Y-125520000D01*
G75*
G02*
X197975000Y-125395000I0J125000D01*
G01*
X197975000Y-125145000D01*
G75*
G02*
X198100000Y-125020000I125000J0D01*
G01*
X199750000Y-125020000D01*
G75*
G02*
X199875000Y-125145000I0J-125000D01*
G01*
G37*
G36*
G01*
X199875000Y-125795000D02*
X199875000Y-126045000D01*
G75*
G02*
X199750000Y-126170000I-125000J0D01*
G01*
X198100000Y-126170000D01*
G75*
G02*
X197975000Y-126045000I0J125000D01*
G01*
X197975000Y-125795000D01*
G75*
G02*
X198100000Y-125670000I125000J0D01*
G01*
X199750000Y-125670000D01*
G75*
G02*
X199875000Y-125795000I0J-125000D01*
G01*
G37*
G36*
G01*
X199875000Y-126445000D02*
X199875000Y-126695000D01*
G75*
G02*
X199750000Y-126820000I-125000J0D01*
G01*
X198100000Y-126820000D01*
G75*
G02*
X197975000Y-126695000I0J125000D01*
G01*
X197975000Y-126445000D01*
G75*
G02*
X198100000Y-126320000I125000J0D01*
G01*
X199750000Y-126320000D01*
G75*
G02*
X199875000Y-126445000I0J-125000D01*
G01*
G37*
G36*
G01*
X199875000Y-127095000D02*
X199875000Y-127345000D01*
G75*
G02*
X199750000Y-127470000I-125000J0D01*
G01*
X198100000Y-127470000D01*
G75*
G02*
X197975000Y-127345000I0J125000D01*
G01*
X197975000Y-127095000D01*
G75*
G02*
X198100000Y-126970000I125000J0D01*
G01*
X199750000Y-126970000D01*
G75*
G02*
X199875000Y-127095000I0J-125000D01*
G01*
G37*
G36*
G01*
X199875000Y-127745000D02*
X199875000Y-127995000D01*
G75*
G02*
X199750000Y-128120000I-125000J0D01*
G01*
X198100000Y-128120000D01*
G75*
G02*
X197975000Y-127995000I0J125000D01*
G01*
X197975000Y-127745000D01*
G75*
G02*
X198100000Y-127620000I125000J0D01*
G01*
X199750000Y-127620000D01*
G75*
G02*
X199875000Y-127745000I0J-125000D01*
G01*
G37*
G36*
G01*
X199875000Y-128395000D02*
X199875000Y-128645000D01*
G75*
G02*
X199750000Y-128770000I-125000J0D01*
G01*
X198100000Y-128770000D01*
G75*
G02*
X197975000Y-128645000I0J125000D01*
G01*
X197975000Y-128395000D01*
G75*
G02*
X198100000Y-128270000I125000J0D01*
G01*
X199750000Y-128270000D01*
G75*
G02*
X199875000Y-128395000I0J-125000D01*
G01*
G37*
G36*
G01*
X199875000Y-129045000D02*
X199875000Y-129295000D01*
G75*
G02*
X199750000Y-129420000I-125000J0D01*
G01*
X198100000Y-129420000D01*
G75*
G02*
X197975000Y-129295000I0J125000D01*
G01*
X197975000Y-129045000D01*
G75*
G02*
X198100000Y-128920000I125000J0D01*
G01*
X199750000Y-128920000D01*
G75*
G02*
X199875000Y-129045000I0J-125000D01*
G01*
G37*
G36*
G01*
X199875000Y-129695000D02*
X199875000Y-129945000D01*
G75*
G02*
X199750000Y-130070000I-125000J0D01*
G01*
X198100000Y-130070000D01*
G75*
G02*
X197975000Y-129945000I0J125000D01*
G01*
X197975000Y-129695000D01*
G75*
G02*
X198100000Y-129570000I125000J0D01*
G01*
X199750000Y-129570000D01*
G75*
G02*
X199875000Y-129695000I0J-125000D01*
G01*
G37*
G36*
G01*
X199875000Y-130345000D02*
X199875000Y-130595000D01*
G75*
G02*
X199750000Y-130720000I-125000J0D01*
G01*
X198100000Y-130720000D01*
G75*
G02*
X197975000Y-130595000I0J125000D01*
G01*
X197975000Y-130345000D01*
G75*
G02*
X198100000Y-130220000I125000J0D01*
G01*
X199750000Y-130220000D01*
G75*
G02*
X199875000Y-130345000I0J-125000D01*
G01*
G37*
%TD*%
D31*
%TO.C,U3*%
X143020000Y-114725000D03*
D32*
X146830000Y-123875000D03*
X145560000Y-123875000D03*
X144290000Y-123875000D03*
X143020000Y-123875000D03*
X141750000Y-123875000D03*
X140480000Y-123875000D03*
X139210000Y-123875000D03*
%TD*%
%TO.C,U4*%
X92510000Y-122995000D03*
X93780000Y-122995000D03*
X95050000Y-122995000D03*
X96320000Y-122995000D03*
X97590000Y-122995000D03*
X98860000Y-122995000D03*
X100130000Y-122995000D03*
D31*
X96320000Y-113845000D03*
%TD*%
D21*
%TO.C,Y1*%
G36*
X208819670Y-131006827D02*
G01*
X210163173Y-132350330D01*
X209880330Y-132633173D01*
X208536827Y-131289670D01*
X208819670Y-131006827D01*
G37*
G36*
X207971142Y-131855355D02*
G01*
X209314645Y-133198858D01*
X209031802Y-133481701D01*
X207688299Y-132138198D01*
X207971142Y-131855355D01*
G37*
G36*
X207122614Y-132703883D02*
G01*
X208466117Y-134047386D01*
X208183274Y-134330229D01*
X206839771Y-132986726D01*
X207122614Y-132703883D01*
G37*
%TD*%
D18*
%TO.C,J2*%
X146570000Y-147800000D03*
D17*
X149110000Y-147800000D03*
X151650000Y-147800000D03*
X154190000Y-147800000D03*
%TD*%
%TO.C,J4*%
X162970000Y-140180000D03*
X162970000Y-142720000D03*
X162970000Y-145260000D03*
D18*
X162970000Y-147800000D03*
%TD*%
%TO.C,MCP2200_GPIO*%
X202890000Y-147795000D03*
D17*
X200350000Y-147795000D03*
X197810000Y-147795000D03*
X195270000Y-147795000D03*
X192730000Y-147795000D03*
X190190000Y-147795000D03*
%TD*%
D18*
%TO.C,J6*%
X183980000Y-147795000D03*
D17*
X181440000Y-147795000D03*
X178900000Y-147795000D03*
%TD*%
M02*
