M48
; DRILL file {KiCad (5.1.9)-1} date 08/07/21 22:14:27
; FORMAT={-:-/ absolute / inch / decimal}
; #@! TF.CreationDate,2021-08-07T22:14:27+02:00
; #@! TF.GenerationSoftware,Kicad,Pcbnew,(5.1.9)-1
; #@! TF.FileFunction,Plated,1,2,PTH
FMAT,2
INCH
T1C0.0157
T2C0.0197
T3C0.0236
T4C0.0315
T5C0.0374
T6C0.0394
T7C0.0591
T8C0.0598
T9C0.0630
%
G90
G05
T1
X3.1173Y-4.0197
X3.1173Y-4.2697
X3.1173Y-4.5165
X3.1173Y-4.7669
X3.4972Y-4.965
X3.5878Y-2.2776
X3.6138Y-4.3378
X3.6138Y-4.3969
X3.6138Y-4.4559
X3.6138Y-4.515
X3.6138Y-4.574
X3.6138Y-4.6331
X3.6728Y-4.3378
X3.6728Y-4.3969
X3.6728Y-4.4559
X3.6728Y-4.515
X3.6728Y-4.574
X3.6728Y-4.6331
X3.7319Y-4.3378
X3.7319Y-4.3969
X3.7319Y-4.4559
X3.7319Y-4.515
X3.7319Y-4.574
X3.7319Y-4.6331
X3.7657Y-4.0453
X3.7909Y-4.3378
X3.7909Y-4.3969
X3.7909Y-4.4559
X3.7909Y-4.515
X3.7909Y-4.574
X3.7909Y-4.6331
X3.85Y-4.3378
X3.85Y-4.3969
X3.85Y-4.4559
X3.85Y-4.515
X3.85Y-4.574
X3.85Y-4.6331
X3.9091Y-4.3378
X3.9091Y-4.3969
X3.9091Y-4.4559
X3.9091Y-4.515
X3.9091Y-4.574
X3.9091Y-4.6331
X3.9185Y-5.3591
X3.9681Y-4.3378
X3.9681Y-4.3969
X3.9681Y-4.4559
X3.9681Y-4.515
X3.9681Y-4.574
X3.9681Y-4.6331
X3.9953Y-2.2776
X4.0354Y-3.889
X4.3917Y-4.4638
X4.3921Y-4.765
X4.7795Y-2.2776
X4.9551Y-4.5244
X4.9563Y-4.774
X4.9575Y-4.0189
X4.9575Y-4.2689
X5.0113Y-2.7549
X5.0113Y-3.0173
X5.0559Y-2.7549
X5.0559Y-3.0173
X5.1016Y-3.4142
X5.1016Y-3.454
X5.1866Y-2.2776
X5.3358Y-5.0008
X5.4528Y-4.3732
X5.4528Y-4.4323
X5.4528Y-4.4913
X5.4528Y-4.5504
X5.4528Y-4.6094
X5.4528Y-4.6685
X5.5118Y-4.3732
X5.5118Y-4.4323
X5.5118Y-4.4913
X5.5118Y-4.5504
X5.5118Y-4.6094
X5.5118Y-4.6685
X5.5709Y-4.3732
X5.5709Y-4.4323
X5.5709Y-4.4913
X5.5709Y-4.5504
X5.5709Y-4.6094
X5.5709Y-4.6685
X5.5906Y-4.0657
X5.6299Y-4.3732
X5.6299Y-4.4323
X5.6299Y-4.4913
X5.6299Y-4.5504
X5.6299Y-4.6094
X5.6299Y-4.6685
X5.689Y-4.3732
X5.689Y-4.4323
X5.689Y-4.4913
X5.689Y-4.5504
X5.689Y-4.6094
X5.689Y-4.6685
X5.748Y-4.3732
X5.748Y-4.4323
X5.748Y-4.4913
X5.748Y-4.5504
X5.748Y-4.6094
X5.748Y-4.6685
X5.7705Y-5.628
X5.772Y-5.4776
X5.8071Y-4.3732
X5.8071Y-4.4323
X5.8071Y-4.4913
X5.8071Y-4.5504
X5.8071Y-4.6094
X5.8071Y-4.6685
X5.8705Y-5.628
X5.872Y-5.4776
X5.876Y-3.9126
X5.9669Y-2.2776
X5.9705Y-5.628
X5.972Y-5.4776
X6.0Y-3.5337
X6.0Y-3.5735
X6.0Y-3.6134
X6.0705Y-5.628
X6.072Y-5.4776
X6.1756Y-3.6366
X6.2017Y-2.7549
X6.2017Y-3.0173
X6.2043Y-3.5717
X6.235Y-4.4874
X6.2354Y-4.7835
X6.25Y-2.7549
X6.25Y-3.0173
X6.25Y-3.5059
X6.3362Y-4.6071
X6.3504Y-3.5484
X6.3764Y-2.2776
X6.4169Y-4.9673
X6.4169Y-5.0339
X6.4555Y-3.4984
X6.5591Y-4.9291
X6.5992Y-4.1972
X6.5992Y-4.2862
X6.5992Y-4.3354
X6.5992Y-4.4858
X6.5992Y-4.6157
X6.6039Y-4.8925
X6.6181Y-5.0339
X6.6701Y-4.7587
X6.7291Y-5.7205
X6.7469Y-4.9673
X6.776Y-5.7205
X6.7787Y-4.7063
X6.8122Y-5.4874
X6.8138Y-5.3969
X6.8224Y-5.7189
X6.8587Y-4.9291
X6.8654Y-3.9013
X6.8764Y-4.6157
X6.8935Y-4.7589
X6.9256Y-4.8925
X6.948Y-4.7063
X6.9555Y-4.1437
X6.9713Y-4.6157
X6.9772Y-4.5654
X7.1268Y-3.9346
X7.1587Y-2.2776
X7.1705Y-4.5622
X7.1925Y-3.9894
X7.1925Y-4.1193
X7.1937Y-5.1839
X7.2217Y-3.9067
X7.2244Y-4.1732
X7.2669Y-5.1823
X7.2957Y-4.1748
X7.2957Y-4.2339
X7.2957Y-4.2929
X7.3547Y-4.1748
X7.3547Y-4.2339
X7.3547Y-4.2929
X7.4138Y-4.1748
X7.4138Y-4.2339
X7.4138Y-4.2929
X7.4539Y-3.7079
X7.4539Y-3.7634
X7.4539Y-3.8189
X7.4539Y-3.874
X7.4539Y-3.9295
X7.4539Y-3.985
X7.4614Y-5.1232
X7.5681Y-2.2776
X7.5713Y-4.7374
X7.7098Y-5.1213
X7.7433Y-5.1539
X7.7748Y-5.2075
X7.798Y-3.9362
X7.8157Y-5.4476
X7.8449Y-4.3358
X7.8465Y-4.4354
X7.85Y-5.335
X7.8756Y-4.2783
X7.876Y-4.172
X7.8941Y-4.9801
X7.9291Y-4.8642
X7.9295Y-5.0083
X7.9417Y-4.3358
X7.9417Y-4.4354
X7.9543Y-4.5465
X7.9543Y-4.6209
X7.9638Y-5.0343
X8.2563Y-5.2697
X8.3465Y-2.2776
X8.472Y-5.8157
X8.4728Y-5.5854
X8.5657Y-5.5854
X8.7587Y-2.2776
T2
X3.0882Y-2.678
X3.0882Y-2.9933
X3.1209Y-3.1866
X3.1866Y-2.678
X3.1866Y-2.9142
X3.2851Y-2.678
X3.2851Y-2.8354
X3.3823Y-2.678
X3.3823Y-2.7567
X3.7685Y-3.2421
X3.8711Y-3.2667
X3.9071Y-3.2354
X3.9451Y-3.1955
X3.9813Y-3.1577
X4.076Y-2.9079
X4.278Y-2.1693
X4.2781Y-2.248
X4.3765Y-2.3268
X4.3768Y-2.1693
X4.4748Y-2.1697
X4.4749Y-2.4055
X4.5734Y-2.4843
X4.5736Y-2.1685
X5.2681Y-2.9071
X5.4681Y-2.1681
X5.4682Y-2.2469
X5.5667Y-2.3256
X5.5669Y-2.1681
X5.665Y-2.1685
X5.6651Y-2.4043
X5.7635Y-2.4831
X5.7638Y-2.1673
X6.4543Y-2.9071
X6.6591Y-2.1693
X6.6592Y-2.248
X6.7576Y-2.3268
X6.7579Y-2.1693
X6.8559Y-2.1697
X6.856Y-2.4055
X6.9545Y-2.4843
X6.9547Y-2.1685
X7.6835Y-3.0701
X7.8496Y-2.6772
X7.8496Y-2.7559
X7.9481Y-2.6772
X7.9481Y-2.8346
X8.0465Y-2.6772
X8.0465Y-2.9134
X8.1437Y-2.6772
X8.1437Y-2.9921
T4
X4.22Y-2.678
X4.22Y-3.178
X4.32Y-2.678
X4.32Y-3.178
X4.42Y-2.678
X4.42Y-3.178
X4.52Y-2.678
X4.52Y-3.178
X4.62Y-2.678
X4.62Y-3.178
X4.72Y-2.678
X4.72Y-3.178
X4.82Y-2.678
X4.82Y-3.178
X4.92Y-2.678
X4.92Y-3.178
X5.4105Y-2.678
X5.4105Y-3.178
X5.5105Y-2.678
X5.5105Y-3.178
X5.6105Y-2.678
X5.6105Y-3.178
X5.7105Y-2.678
X5.7105Y-3.178
X5.8105Y-2.678
X5.8105Y-3.178
X5.9105Y-2.678
X5.9105Y-3.178
X6.0105Y-2.678
X6.0105Y-3.178
X6.1105Y-2.678
X6.1105Y-3.178
X6.6009Y-2.678
X6.6009Y-3.178
X6.7009Y-2.678
X6.7009Y-3.178
X6.8009Y-2.678
X6.8009Y-3.178
X6.9009Y-2.678
X6.9009Y-3.178
X7.0009Y-2.678
X7.0009Y-3.178
X7.1009Y-2.678
X7.1009Y-3.178
X7.2009Y-2.678
X7.2009Y-3.178
X7.3009Y-2.678
X7.3009Y-3.178
T5
X3.0878Y-2.0614
X3.1862Y-2.0614
X3.2846Y-2.0614
X3.3831Y-2.0614
X3.6437Y-2.0614
X3.7421Y-2.0614
X3.8405Y-2.0614
X3.9389Y-2.0614
X4.2783Y-2.0614
X4.3767Y-2.0614
X4.4751Y-2.0614
X4.5735Y-2.0614
X4.835Y-2.0614
X4.9335Y-2.0614
X5.0319Y-2.0614
X5.1303Y-2.0614
X5.4687Y-2.0614
X5.5671Y-2.0614
X5.6656Y-2.0614
X5.764Y-2.0614
X6.0246Y-2.0614
X6.123Y-2.0614
X6.2214Y-2.0614
X6.3199Y-2.0614
X6.6592Y-2.0614
X6.7576Y-2.0614
X6.856Y-2.0614
X6.9545Y-2.0614
X7.215Y-2.0614
X7.3135Y-2.0614
X7.4119Y-2.0614
X7.5103Y-2.0614
X7.8484Y-2.0614
X7.9469Y-2.0614
X8.0453Y-2.0614
X8.1437Y-2.0614
X8.4035Y-2.0614
X8.502Y-2.0614
X8.6004Y-2.0614
X8.6988Y-2.0614
T6
X4.4661Y-5.8189
X4.5661Y-5.8189
X4.6661Y-5.8189
X4.9776Y-5.8189
X5.0776Y-5.8189
X5.1776Y-5.8189
X5.45Y-5.8189
X5.55Y-5.8189
X5.7705Y-5.8189
X5.8705Y-5.8189
X5.9705Y-5.8189
X6.0705Y-5.8189
X6.4161Y-5.5189
X6.4161Y-5.6189
X6.4161Y-5.7189
X6.4161Y-5.8189
X7.0433Y-5.8187
X7.1433Y-5.8187
X7.2433Y-5.8187
X7.4878Y-5.8187
X7.5878Y-5.8187
X7.6878Y-5.8187
X7.7878Y-5.8187
X7.8878Y-5.8187
X7.9878Y-5.8187
X8.2102Y-5.8187
X8.3102Y-5.8187
T7
X3.9402Y-5.535
X3.9402Y-5.8352
X4.6094Y-4.5272
X6.4161Y-5.1657
X6.4161Y-5.3461
X6.448Y-4.5551
T8
X3.502Y-5.7563
X3.702Y-5.7563
T9
X2.8248Y-2.2311
X2.8248Y-2.4311
X2.8248Y-2.6311
X2.8248Y-2.8311
X2.8248Y-3.0311
X2.8248Y-3.2311
X2.8248Y-3.4311
X2.8248Y-3.6311
X2.8248Y-3.8311
X2.8248Y-4.0311
X2.8248Y-4.2311
X2.8248Y-4.4311
X8.972Y-2.2437
X8.972Y-2.4437
X8.972Y-2.6437
X8.972Y-2.8437
X8.972Y-3.0437
X8.972Y-3.2437
X8.972Y-3.4437
X8.972Y-3.6437
X8.972Y-3.8437
X8.972Y-4.0437
X8.972Y-4.2437
X8.972Y-4.4437
T3
G00X6.5475Y-5.6118
M15
G01X6.5475Y-5.5724
M16
G05
G00X6.5475Y-5.8327
M15
G01X6.5475Y-5.7736
M16
G05
G00X6.8877Y-5.6118
M15
G01X6.8877Y-5.5724
M16
G05
G00X6.8877Y-5.8327
M15
G01X6.8877Y-5.7736
M16
G05
T0
M30
